{
.appVersion = "3343";
.formatVersion = 3;
axes = (
{
name = Plan;
tag = PLAN;
}
);
date = "2024-03-01 13:13:23 +0000";
familyName = Floorplan;
fontMaster = (
{
axesValues = (
0
);
customParameters = (
{
name = typoAscender;
value = 800;
},
{
name = typoDescender;
value = -200;
},
{
name = typoLineGap;
value = 200;
},
{
name = winAscent;
value = 1000;
},
{
name = winDescent;
value = 200;
},
{
name = hheaAscender;
value = 1000;
},
{
name = hheaDescender;
value = -200;
},
{
name = strikeoutPosition;
value = 250;
},
{
name = strikeoutSize;
value = 50;
}
);
id = m01;
metricValues = (
{
pos = 800;
},
{
pos = 700;
},
{
pos = 500;
},
{
},
{
pos = -200;
},
{
}
);
name = Regular;
},
{
axesValues = (
50
);
customParameters = (
{
name = typoAscender;
value = 800;
},
{
name = typoDescender;
value = -200;
},
{
name = typoLineGap;
value = 200;
},
{
name = winAscent;
value = 1000;
},
{
name = winDescent;
value = 200;
},
{
name = hheaAscender;
value = 1000;
},
{
name = hheaDescender;
value = -200;
},
{
name = strikeoutPosition;
value = 250;
},
{
name = strikeoutSize;
value = 50;
}
);
id = "8170BF18-F680-49C4-9C32-98C00A67E0AD";
metricValues = (
{
pos = 800;
},
{
pos = 700;
},
{
pos = 500;
},
{
},
{
pos = -200;
},
{
}
);
name = Half;
},
{
axesValues = (
100
);
customParameters = (
{
name = typoAscender;
value = 800;
},
{
name = typoDescender;
value = -200;
},
{
name = typoLineGap;
value = 200;
},
{
name = winAscent;
value = 1000;
},
{
name = winDescent;
value = 200;
},
{
name = hheaAscender;
value = 1000;
},
{
name = hheaDescender;
value = -200;
},
{
name = strikeoutPosition;
value = 250;
},
{
name = strikeoutSize;
value = 50;
}
);
id = "A66FA00C-2270-434E-9748-2FE2353A60C5";
metricValues = (
{
pos = 800;
},
{
pos = 700;
},
{
pos = 500;
},
{
},
{
pos = -200;
},
{
}
);
name = Full;
}
);
glyphs = (
{
glyphname = A;
lastChange = "2025-10-03 16:28:46 +0000";
layers = (
{
layerId = m01;
shapes = (
{
closed = 1;
nodes = (
(297,-13,o),
(353,10,o),
(385,30,qs),
(394,36,o),
(410,44,o),
(413,41,qs),
(416,38,o),
(418,21,o),
(418,9,qs),
(418,0,l),
(489,0,l),
(489,372,ls),
(489,405,o),
(448,464,o),
(373,500,o),
(324,500,qs),
(232,502,o),
(118,419,o),
(118,337,q),
(189,337,l),
(195,387,o),
(254,430,o),
(305,431,qs),
(363,432,o),
(421,386,o),
(422,331,q),
(373,319,ls),
(272,294,o),
(156,250,o),
(89,165,o),
(104,95,qs),
(114,49,o),
(196,-12,o),
(257,-13,qs)
);
},
{
closed = 1;
nodes = (
(422,190,o),
(406,117,o),
(386,94,qs),
(360,66,o),
(268,48,o),
(235,64,qs),
(211,76,o),
(190,133,o),
(195,163,qs),
(199,192,o),
(296,248,o),
(422,267,q)
);
}
);
width = 589;
},
{
layerId = "8170BF18-F680-49C4-9C32-98C00A67E0AD";
shapes = (
{
closed = 1;
nodes = (
(387,0,o),
(540,30,o),
(674,57,qs),
(725,67,o),
(776,77,o),
(828,87,q),
(831,67,o),
(835,35,o),
(836,11,qs),
(836,0,l),
(978,0,l),
(978,777,l),
(935,833,o),
(892,889,o),
(849,945,o),
(806,1001,q),
(588,966,o),
(371,930,o),
(146,894,q),
(220,745,l),
(285,766,o),
(350,788,o),
(417,810,q),
(426,746,o),
(435,683,o),
(444,617,q),
(438,609,ls),
(381,539,o),
(325,470,o),
(268,400,o),
(211,330,q),
(249,215,o),
(329,58,o),
(302,-4,q)
);
},
{
closed = 1;
nodes = (
(1054,543,o),
(1038,469,o),
(1018,443,q),
(992,420,o),
(900,407,o),
(867,429,q),
(842,437,o),
(819,492,o),
(823,518,qs),
(828,547,o),
(926,603,o),
(1054,622,q)
);
}
);
width = 1200;
},
{
layerId = "A66FA00C-2270-434E-9748-2FE2353A60C5";
shapes = (
{
closed = 1;
nodes = (
(128,10,o),
(217,20,o),
(308,31,qs),
(344,35,o),
(381,40,o),
(418,44,q),
(418,30,o),
(418,16,o),
(418,2,qs),
(418,0,l),
(489,0,l),
(489,372,ls),
(489,404,o),
(489,436,o),
(489,468,o),
(489,500,q),
(337,500,o),
(185,500,o),
(28,500,q),
(27,372,l),
(53,372,o),
(80,372,o),
(107,372,q),
(107,344,o),
(107,317,o),
(107,288,qs),
(107,285,ls),
(107,259,o),
(107,234,o),
(107,208,o),
(107,182,q),
(85,122,o),
(63,62,o),
(40,0,q)
);
},
{
closed = 1;
nodes = (
(709,371,o),
(675,340,o),
(636,359,q),
(657,340,o),
(611,331,o),
(626,357,q),
(618,337,o),
(612,363,o),
(633,360,q),
(593,370,o),
(646,407,o),
(727,407,q)
);
}
);
width = 600;
}
);
note = a;
unicode = 65;
},
{
glyphname = B;
lastChange = "2025-10-03 16:28:46 +0000";
layers = (
{
layerId = m01;
shapes = (
{
closed = 1;
nodes = (
(236,61,o),
(171,127,o),
(171,180,qs),
(171,308,ls),
(171,374,o),
(232,427,o),
(290,427,qs),
(343,427,o),
(408,361,o),
(408,308,qs),
(408,180,ls),
(408,114,o),
(347,61,o),
(289,61,qs)
);
},
{
closed = 1;
nodes = (
(171,9,o),
(173,24,o),
(176,24,qs),
(180,24,o),
(190,19,qs),
(236,-4,o),
(285,-4,qs),
(314,-4,ls),
(394,-4,o),
(479,94,o),
(479,174,qs),
(479,308,ls),
(479,394,o),
(375,498,o),
(290,498,qs),
(223,498,ls),
(197,498,o),
(171,524,o),
(171,558,qs),
(171,699,l),
(100,642,l),
(100,0,l),
(171,0,l)
);
}
);
width = 579;
},
{
layerId = "8170BF18-F680-49C4-9C32-98C00A67E0AD";
shapes = (
{
closed = 1;
nodes = (
(500,347,o),
(422,374,o),
(342,403,q),
(342,741,l),
(420,765,o),
(500,789,o),
(580,813,q),
(636,786,o),
(691,758,o),
(748,730,q),
(748,392,l),
(692,368,o),
(635,344,o),
(578,319,q)
);
},
{
closed = 1;
nodes = (
(463,57,o),
(465,115,o),
(468,174,q),
(494,172,o),
(520,170,qs),
(630,161,o),
(740,152,q),
(856,-4,l),
(927,38,o),
(1000,80,o),
(1073,123,q),
(1073,730,l),
(985,842,o),
(899,955,o),
(809,1070,q),
(416,1070,l),
(392,1094,o),
(368,1118,o),
(342,1142,q),
(342,1398,l),
(108,1342,l),
(108,0,l),
(460,0,l)
);
}
);
width = 1200;
},
{
layerId = "A66FA00C-2270-434E-9748-2FE2353A60C5";
shapes = (
{
closed = 1;
nodes = (
(250,258,o),
(211,258,o),
(171,258,q),
(171,386,l),
(210,386,o),
(250,386,o),
(290,386,qs),
(307,386,o),
(323,386,o),
(340,386,q),
(340,258,l),
(323,258,o),
(306,258,o),
(289,258,qs)
);
},
{
closed = 1;
nodes = (
(289,51,o),
(289,103,o),
(289,156,q),
(308,156,o),
(327,156,qs),
(407,156,o),
(487,156,q),
(487,0,l),
(522,0,o),
(558,0,o),
(594,0,q),
(594,365,l),
(550,433,o),
(507,502,o),
(462,572,q),
(208,572,l),
(196,584,o),
(184,596,o),
(171,608,q),
(171,699,l),
(8,700,l),
(8,0,l),
(289,0,l)
);
}
);
width = 600;
}
);
note = b;
unicode = 66;
},
{
glyphname = C;
lastChange = "2025-10-03 16:28:46 +0000";
layers = (
{
layerId = m01;
shapes = (
{
closed = 1;
nodes = (
(467,308,l),
(460,383,o),
(378,459,o),
(323,459,qs),
(288,459,o),
(225,418,o),
(183,323,o),
(183,247,qs),
(184,163,o),
(261,45,o),
(334,45,qs),
(384,45,o),
(456,105,o),
(465,162,q),
(542,162,l),
(524,71,o),
(428,-15,o),
(336,-15,qs),
(261,-15,o),
(155,55,o),
(100,178,o),
(100,258,qs),
(100,334,o),
(156,451,o),
(259,516,o),
(328,516,qs),
(423,516,o),
(536,406,o),
(542,308,q)
);
}
);
width = 642;
},
{
layerId = "8170BF18-F680-49C4-9C32-98C00A67E0AD";
shapes = (
{
closed = 1;
nodes = (
(963,722,l),
(948,754,o),
(934,787,o),
(919,820,q),
(884,732,o),
(848,644,o),
(813,556,o),
(777,467,q),
(790,390,o),
(802,314,o),
(816,235,q),
(842,238,o),
(867,239,o),
(894,242,q),
(966,103,l),
(858,64,o),
(751,25,o),
(640,-15,q),
(530,122,o),
(421,259,o),
(310,395,o),
(200,532,q),
(310,657,o),
(419,782,o),
(529,906,o),
(638,1031,q),
(770,984,o),
(903,937,o),
(1039,889,q)
);
}
);
width = 1194;
},
{
layerId = "A66FA00C-2270-434E-9748-2FE2353A60C5";
shapes = (
{
closed = 1;
nodes = (
(501,361,l),
(531,361,o),
(562,361,o),
(593,361,q),
(593,318,o),
(593,276,o),
(593,233,o),
(593,190,q),
(563,190,o),
(532,190,o),
(501,190,q),
(479,167,o),
(457,143,o),
(435,119,q),
(435,0,l),
(396,0,o),
(357,0,o),
(317,0,q),
(263,69,o),
(209,138,o),
(154,207,o),
(100,276,q),
(154,336,o),
(208,396,o),
(262,455,o),
(316,515,q),
(377,515,o),
(438,515,o),
(501,515,q)
);
}
);
width = 594;
}
);
note = c;
unicode = 67;
},
{
glyphname = D;
lastChange = "2025-10-03 16:28:46 +0000";
layers = (
{
layerId = m01;
shapes = (
{
closed = 1;
nodes = (
(232,61,o),
(171,114,o),
(171,180,qs),
(171,308,ls),
(171,361,o),
(236,427,o),
(289,427,qs),
(347,427,o),
(408,374,o),
(408,308,qs),
(408,180,ls),
(408,127,o),
(343,61,o),
(290,61,qs)
);
},
{
closed = 1;
nodes = (
(479,0,l),
(479,642,l),
(408,699,l),
(408,558,ls),
(408,524,o),
(382,498,o),
(356,498,qs),
(289,498,ls),
(204,498,o),
(100,394,o),
(100,308,qs),
(100,174,ls),
(100,94,o),
(185,-4,o),
(265,-4,qs),
(294,-4,ls),
(343,-4,o),
(389,19,qs),
(399,24,o),
(403,24,qs),
(406,24,o),
(408,9,o),
(408,0,q)
);
}
);
width = 579;
},
{
layerId = "8170BF18-F680-49C4-9C32-98C00A67E0AD";
shapes = (
{
closed = 1;
nodes = (
(460,377,o),
(431,424,o),
(403,472,q),
(502,682,l),
(554,687,o),
(606,693,o),
(659,698,q),
(687,652,o),
(716,605,o),
(744,558,q),
(645,348,l),
(593,342,o),
(541,337,o),
(488,331,q)
);
},
{
closed = 1;
nodes = (
(1079,0,l),
(1079,1284,l),
(816,1341,l),
(816,1068,l),
(792,1044,o),
(768,1020,o),
(744,996,q),
(391,998,l),
(336,965,o),
(282,932,o),
(225,899,q),
(225,823,l),
(220,781,o),
(216,739,o),
(211,696,q),
(328,-8,l),
(514,30,o),
(699,67,qs),
(744,77,o),
(788,85,q),
(797,61,o),
(807,37,o),
(816,12,q)
);
}
);
width = 1200;
},
{
layerId = "A66FA00C-2270-434E-9748-2FE2353A60C5";
shapes = (
{
closed = 1;
nodes = (
(209,292,o),
(220,315,o),
(232,338,q),
(331,338,l),
(344,316,o),
(357,294,o),
(370,271,q),
(359,249,o),
(348,226,o),
(336,203,q),
(237,203,l),
(224,225,o),
(211,247,o),
(198,270,q)
);
},
{
closed = 1;
nodes = (
(600,0,l),
(600,642,l),
(408,642,l),
(408,534,l),
(396,522,o),
(384,510,o),
(372,498,q),
(159,500,l),
(148,511,o),
(137,522,o),
(125,534,q),
(125,700,l),
(84,700,o),
(43,700,o),
(1,700,q),
(1,-4,l),
(157,22,o),
(312,48,qs),
(350,55,o),
(387,61,q),
(394,43,o),
(401,25,o),
(408,6,q)
);
}
);
width = 600;
}
);
note = d;
unicode = 68;
},
{
glyphname = E;
lastChange = "2025-10-03 16:28:46 +0000";
layers = (
{
layerId = m01;
shapes = (
{
closed = 1;
nodes = (
(456,305,l),
(454,379,o),
(377,457,o),
(322,457,qs),
(287,457,o),
(228,431,o),
(209,406,qs),
(196,391,o),
(186,342,o),
(215,305,o),
(257,305,qs)
);
},
{
closed = 1;
nodes = (
(100,334,o),
(156,451,o),
(259,516,o),
(328,516,qs),
(391,516,o),
(487,454,o),
(541,341,o),
(542,267,qs),
(542,262,o),
(542,253,o),
(541,249,q),
(172,249,l),
(172,164,o),
(255,45,o),
(334,45,qs),
(384,45,o),
(456,105,o),
(465,162,q),
(536,162,l),
(524,76,o),
(414,-15,o),
(336,-15,qs),
(261,-15,o),
(155,55,o),
(100,178,o),
(100,258,qs)
);
}
);
width = 642;
},
{
layerId = "8170BF18-F680-49C4-9C32-98C00A67E0AD";
shapes = (
{
closed = 1;
nodes = (
(714,335,l),
(674,525,o),
(633,714,o),
(592,909,q),
(485,893,o),
(378,878,o),
(268,862,q),
(268,717,o),
(269,573,o),
(269,427,o),
(269,282,q)
);
},
{
closed = 1;
nodes = (
(419,649,o),
(474,777,o),
(530,904,o),
(585,1032,q),
(711,988,o),
(837,944,o),
(962,899,o),
(1088,855,q),
(1088,755,o),
(1089,657,o),
(1089,554,q),
(575,499,l),
(640,388,o),
(704,278,o),
(770,163,q),
(848,189,o),
(925,214,o),
(1006,241,q),
(1075,103,l),
(909,64,o),
(744,25,o),
(573,-15,q),
(521,119,o),
(468,254,o),
(416,387,o),
(363,521,q)
);
}
);
width = 1294;
},
{
layerId = "A66FA00C-2270-434E-9748-2FE2353A60C5";
shapes = (
{
closed = 1;
nodes = (
(234,16,l),
(234,173,o),
(234,330,o),
(234,491,q),
(167,491,o),
(101,491,o),
(32,491,q),
(32,372,o),
(32,254,o),
(32,135,o),
(32,16,q)
);
},
{
closed = 1;
nodes = (
(263,328,o),
(263,391,o),
(263,453,o),
(263,516,q),
(334,516,o),
(405,516,o),
(476,516,o),
(547,516,q),
(547,445,o),
(547,375,o),
(547,302,q),
(403,302,l),
(422,241,o),
(441,181,o),
(460,118,q),
(489,118,o),
(517,118,o),
(547,118,q),
(547,0,l),
(453,0,o),
(360,0,o),
(263,0,q),
(263,66,o),
(263,133,o),
(263,199,o),
(263,265,qs)
);
}
);
width = 647;
}
);
note = e;
unicode = 69;
},
{
glyphname = F;
lastChange = "2025-10-03 16:28:46 +0000";
layers = (
{
layerId = m01;
shapes = (
{
closed = 1;
nodes = (
(240,540,ls),
(240,514,o),
(310,500,o),
(360,500,qs),
(380,500,l),
(380,440,l),
(240,440,l),
(240,0,l),
(180,0,l),
(180,120,l),
(180,380,ls),
(180,408,o),
(133,440,o),
(100,440,q),
(100,500,l),
(133,500,o),
(180,532,o),
(180,560,qs),
(180,640,l),
(240,700,l),
(431,700,l),
(431,640,l),
(240,640,l)
);
}
);
width = 531;
},
{
layerId = "8170BF18-F680-49C4-9C32-98C00A67E0AD";
shapes = (
{
closed = 1;
nodes = (
(689,1099,l),
(755,1092,o),
(821,1086,o),
(889,1079,q),
(929,1000,l),
(980,940,l),
(840,440,l),
(540,0,l),
(420,0,l),
(420,230,l),
(420,800,l),
(354,813,o),
(288,826,o),
(220,840,q),
(220,1040,l),
(266,1053,o),
(313,1066,o),
(360,1080,q),
(360,1300,l),
(480,1420,l),
(1031,1420,l),
(1031,1280,l),
(689,1280,l)
);
}
);
width = 1240;
},
{
layerId = "A66FA00C-2270-434E-9748-2FE2353A60C5";
shapes = (
{
closed = 1;
nodes = (
(449,579,l),
(482,579,o),
(515,579,o),
(549,579,q),
(549,500,l),
(600,500,l),
(600,0,l),
(300,0,l),
(240,0,l),
(240,110,l),
(240,400,l),
(194,400,o),
(148,400,o),
(100,400,q),
(100,540,l),
(126,540,o),
(153,540,o),
(180,540,q),
(180,660,l),
(240,720,l),
(600,720,l),
(600,640,l),
(449,640,l)
);
}
);
width = 620;
}
);
note = f;
unicode = 70;
},
{
glyphname = G;
lastChange = "2025-10-03 16:28:46 +0000";
layers = (
{
layerId = m01;
shapes = (
{
closed = 1;
nodes = (
(180,-201,l),
(210,-201,ls),
(300,-202,o),
(406,-189,o),
(479,-129,o),
(479,-64,qs),
(479,500,l),
(408,557,l),
(408,500,ls),
(408,491,o),
(406,476,o),
(403,476,qs),
(399,476,o),
(389,481,qs),
(343,504,o),
(294,504,qs),
(265,504,ls),
(185,504,o),
(100,406,o),
(100,326,qs),
(100,192,ls),
(100,101,o),
(186,0,o),
(281,0,qs),
(348,0,ls),
(379,0,o),
(407,-29,o),
(403,-64,qs),
(399,-92,o),
(361,-117,o),
(298,-122,o),
(233,-121,qs),
(180,-121,l)
);
},
{
closed = 1;
nodes = (
(236,73,o),
(171,139,o),
(171,192,qs),
(171,320,ls),
(171,386,o),
(232,439,o),
(290,439,qs),
(343,439,o),
(408,373,o),
(408,320,qs),
(408,192,ls),
(408,126,o),
(347,73,o),
(289,73,qs)
);
}
);
width = 579;
},
{
layerId = "8170BF18-F680-49C4-9C32-98C00A67E0AD";
shapes = (
{
closed = 1;
nodes = (
(666,-401,l),
(672,-400,ls),
(774,-385,o),
(876,-370,o),
(977,-355,o),
(1079,-339,q),
(1079,937,l),
(816,1114,l),
(816,944,l),
(784,938,o),
(751,932,o),
(718,926,q),
(711,940,o),
(704,952,qs),
(674,1007,o),
(644,1061,q),
(407,1061,l),
(310,958,o),
(213,856,o),
(113,750,q),
(113,135,l),
(187,90,o),
(262,46,o),
(338,0,q),
(491,61,l),
(599,37,o),
(705,12,o),
(816,-13,q),
(780,-62,o),
(745,-112,o),
(709,-160,o),
(673,-209,qs),
(666,-218,l)
);
},
{
closed = 1;
nodes = (
(303,-62,o),
(244,-24,o),
(184,17,q),
(184,312,l),
(243,346,o),
(303,379,o),
(363,413,q),
(421,375,o),
(480,336,o),
(540,296,q),
(540,1,l),
(481,-33,o),
(421,-66,o),
(361,-101,q)
);
}
);
width = 1200;
},
{
layerId = "A66FA00C-2270-434E-9748-2FE2353A60C5";
shapes = (
{
closed = 1;
nodes = (
(414,-200,l),
(417,-200,ls),
(463,-200,o),
(509,-201,o),
(554,-201,o),
(600,-201,q),
(600,437,l),
(408,557,l),
(408,450,l),
(378,450,o),
(348,450,o),
(317,450,q),
(317,461,o),
(317,471,qs),
(317,514,o),
(317,557,q),
(197,557,l),
(136,496,o),
(76,435,o),
(13,372,q),
(13,0,l),
(49,0,o),
(86,0,o),
(123,0,q),
(124,61,l),
(220,61,o),
(315,61,o),
(414,61,q),
(414,23,o),
(414,-15,o),
(414,-52,o),
(414,-90,qs),
(414,-97,l)
);
},
{
closed = 1;
nodes = (
(53,-163,o),
(33,-152,o),
(13,-140,q),
(13,-55,l),
(33,-45,o),
(53,-36,o),
(73,-26,q),
(92,-37,o),
(112,-48,o),
(132,-60,q),
(132,-145,l),
(112,-155,o),
(92,-164,o),
(72,-174,q)
);
}
);
width = 600;
}
);
note = g;
unicode = 71;
},
{
glyphname = H;
lastChange = "2025-10-03 16:28:46 +0000";
layers = (
{
layerId = m01;
shapes = (
{
closed = 1;
nodes = (
(479,0,l),
(408,0,l),
(408,308,ls),
(408,361,o),
(343,427,o),
(290,427,qs),
(232,427,o),
(171,374,o),
(171,308,qs),
(171,0,l),
(100,0,l),
(100,642,l),
(171,699,l),
(171,577,ls),
(171,532,o),
(211,498,o),
(250,498,qs),
(290,498,ls),
(375,498,o),
(479,394,o),
(479,308,qs)
);
}
);
width = 579;
},
{
layerId = "8170BF18-F680-49C4-9C32-98C00A67E0AD";
shapes = (
{
closed = 1;
nodes = (
(1006,34,l),
(935,180,l),
(784,524,l),
(745,519,o),
(706,515,o),
(666,510,q),
(577,486,o),
(487,462,o),
(395,438,q),
(395,0,l),
(200,0,l),
(200,1388,l),
(423,1445,l),
(423,1099,l),
(477,1083,o),
(531,1068,o),
(587,1052,q),
(1004,1052,l),
(1048,836,o),
(1091,621,o),
(1136,399,q)
);
}
);
width = 1514;
},
{
layerId = "A66FA00C-2270-434E-9748-2FE2353A60C5";
shapes = (
{
closed = 1;
nodes = (
(527,34,l),
(527,180,l),
(376,180,l),
(376,148,o),
(376,116,o),
(376,83,q),
(326,83,o),
(276,83,o),
(224,83,q),
(224,0,l),
(100,0,l),
(100,746,l),
(252,746,l),
(252,554,l),
(288,554,o),
(323,554,o),
(360,554,qs),
(657,554,l),
(657,382,o),
(657,211,o),
(657,34,q)
);
}
);
width = 757;
}
);
note = h;
unicode = 72;
},
{
glyphname = I;
lastChange = "2025-10-03 16:28:46 +0000";
layers = (
{
layerId = m01;
shapes = (
{
closed = 1;
nodes = (
(117,0,l),
(117,355,l),
(117,515,l),
(179,515,l),
(182,515,l),
(182,361,l),
(182,0,l)
);
},
{
closed = 1;
nodes = (
(100,572,l),
(198,572,l),
(198,670,l),
(100,670,l)
);
}
);
width = 298;
},
{
layerId = "8170BF18-F680-49C4-9C32-98C00A67E0AD";
shapes = (
{
closed = 1;
nodes = (
(234,0,l),
(234,405,l),
(234,750,l),
(450,750,l),
(456,750,l),
(456,417,l),
(456,0,l)
);
},
{
closed = 1;
nodes = (
(119,838,l),
(396,838,l),
(396,1340,l),
(119,1340,l)
);
}
);
width = 596;
},
{
layerId = "A66FA00C-2270-434E-9748-2FE2353A60C5";
shapes = (
{
closed = 1;
nodes = (
(117,0,l),
(117,50,l),
(117,235,l),
(271,235,l),
(274,235,l),
(274,56,l),
(274,0,l)
);
},
{
closed = 1;
nodes = (
(19,266,l),
(198,266,l),
(198,670,l),
(19,670,l)
);
}
);
width = 298;
}
);
note = i;
unicode = 73;
},
{
glyphname = J;
lastChange = "2025-10-03 16:28:46 +0000";
layers = (
{
layerId = m01;
shapes = (
{
closed = 1;
nodes = (
(203,549,l),
(301,549,l),
(301,647,l),
(203,647,l)
);
},
{
closed = 1;
nodes = (
(282,-111,o),
(261,-164,o),
(241,-181,qs),
(217,-204,o),
(142,-215,o),
(102,-200,q),
(100,-140,l),
(152,-160,o),
(214,-120,o),
(215,-64,qs),
(220,492,l),
(282,492,l),
(282,-83,ls)
);
}
);
width = 401;
},
{
layerId = "8170BF18-F680-49C4-9C32-98C00A67E0AD";
shapes = (
{
closed = 1;
nodes = (
(204,1097,l),
(602,1098,l),
(602,1294,l),
(204,1293,l)
);
},
{
closed = 1;
nodes = (
(764,-229,o),
(647,-257,o),
(527,-285,q),
(490,-229,o),
(454,-171,o),
(416,-113,q),
(295,-56,l),
(322,41,o),
(348,138,o),
(376,237,q),
(381,992,l),
(881,992,l),
(881,-202,l)
);
}
);
width = 1200;
},
{
layerId = "A66FA00C-2270-434E-9748-2FE2353A60C5";
shapes = (
{
closed = 1;
nodes = (
(1,548,l),
(301,549,l),
(301,647,l),
(1,646,l)
);
},
{
closed = 1;
nodes = (
(496,-101,o),
(393,-101,o),
(287,-101,q),
(287,-36,o),
(287,30,o),
(287,97,q),
(161,97,l),
(161,177,o),
(161,257,o),
(161,339,qs),
(161,500,l),
(599,500,l),
(599,-101,l)
);
}
);
width = 600;
}
);
note = j;
unicode = 74;
},
{
glyphname = K;
lastChange = "2025-10-03 16:28:46 +0000";
layers = (
{
layerId = m01;
shapes = (
{
closed = 1;
nodes = (
(171,390,ls),
(171,350,o),
(209,319,o),
(240,325,qs),
(268,330,o),
(319,435,o),
(346,515,q),
(420,515,l),
(340,324,ls),
(334,311,o),
(335,291,o),
(341,278,qs),
(470,0,l),
(396,0,l),
(364,68,o),
(310,184,o),
(295,213,qs),
(284,233,o),
(256,247,o),
(240,247,qs),
(198,247,o),
(171,194,o),
(171,131,qs),
(171,0,l),
(100,0,l),
(100,642,l),
(171,700,l)
);
}
);
width = 570;
},
{
layerId = "8170BF18-F680-49C4-9C32-98C00A67E0AD";
shapes = (
{
closed = 1;
nodes = (
(342,795,l),
(436,783,o),
(530,771,o),
(626,759,q),
(656,836,o),
(686,913,o),
(717,993,q),
(968,1030,l),
(884,616,l),
(847,606,o),
(808,597,o),
(770,587,q),
(902,0,l),
(688,0,l),
(652,108,o),
(616,218,o),
(579,329,q),
(517,340,o),
(454,351,o),
(390,363,q),
(374,299,o),
(358,235,o),
(342,169,qs),
(294,0,l),
(123,0,l),
(123,1342,l),
(342,1400,l)
);
}
);
width = 1200;
},
{
layerId = "A66FA00C-2270-434E-9748-2FE2353A60C5";
shapes = (
{
closed = 1;
nodes = (
(171,433,l),
(241,433,o),
(311,433,o),
(383,433,q),
(383,460,o),
(383,487,o),
(383,515,q),
(548,515,l),
(548,301,l),
(510,301,o),
(471,301,o),
(432,301,q),
(432,0,l),
(292,0,l),
(292,38,o),
(292,77,o),
(292,116,q),
(252,116,o),
(212,116,o),
(171,116,q),
(171,78,o),
(171,39,o),
(171,0,q),
(123,0,l),
(23,0,l),
(23,700,l),
(171,700,l)
);
}
);
width = 600;
}
);
note = k;
unicode = 75;
},
{
glyphname = L;
lastChange = "2025-10-03 16:28:46 +0000";
layers = (
{
layerId = m01;
shapes = (
{
closed = 1;
nodes = (
(100,0,l),
(100,567,l),
(100,712,l),
(162,712,l),
(165,712,l),
(165,573,l),
(165,0,l)
);
}
);
width = 265;
},
{
layerId = "8170BF18-F680-49C4-9C32-98C00A67E0AD";
shapes = (
{
closed = 1;
nodes = (
(100,0,l),
(100,1134,l),
(100,1424,l),
(419,1424,l),
(425,1424,l),
(425,1146,l),
(425,0,l)
);
}
);
width = 520;
},
{
layerId = "A66FA00C-2270-434E-9748-2FE2353A60C5";
shapes = (
{
closed = 1;
nodes = (
(0,0,l),
(0,567,l),
(0,712,l),
(257,712,l),
(260,712,l),
(260,573,l),
(260,0,l)
);
}
);
width = 260;
}
);
note = l;
unicode = 76;
},
{
glyphname = M;
lastChange = "2025-10-03 16:28:46 +0000";
layers = (
{
layerId = m01;
shapes = (
{
closed = 1;
nodes = (
(479,0,l),
(408,0,l),
(408,308,ls),
(408,361,o),
(343,427,o),
(290,427,qs),
(232,427,o),
(171,374,o),
(171,308,qs),
(171,0,l),
(100,0,l),
(100,459,l),
(171,515,l),
(172,426,l),
(194,456,o),
(260,498,o),
(296,498,qs),
(297,498,ls),
(384,499,o),
(479,396,o),
(479,308,qs)
);
},
{
closed = 1;
nodes = (
(787,0,l),
(716,0,l),
(716,308,ls),
(716,361,o),
(651,427,o),
(598,427,qs),
(540,427,o),
(479,374,o),
(479,308,qs),
(479,0,l),
(408,0,l),
(408,436,l),
(443,386,l),
(461,403,l),
(485,443,o),
(560,498,o),
(604,498,qs),
(605,498,ls),
(692,499,o),
(787,396,o),
(787,308,qs)
);
}
);
width = 887;
},
{
layerId = "8170BF18-F680-49C4-9C32-98C00A67E0AD";
shapes = (
{
closed = 1;
nodes = (
(958,0,l),
(754,133,l),
(668,401,l),
(629,484,o),
(590,569,o),
(550,655,q),
(482,631,o),
(412,607,o),
(342,583,q),
(342,0,l),
(200,0,l),
(200,974,l),
(342,1030,l),
(344,899,l),
(428,923,o),
(512,947,o),
(598,972,q),
(598,1014,l),
(721,970,o),
(845,926,o),
(972,880,q)
);
},
{
closed = 1;
nodes = (
(1574,0,l),
(1432,0,l),
(1432,688,l),
(1363,686,o),
(1295,684,o),
(1224,682,q),
(1162,662,o),
(1102,641,o),
(1038,620,q),
(1024,0,l),
(906,0,l),
(753,416,l),
(788,829,l),
(922,846,l),
(1026,878,o),
(1132,909,o),
(1240,942,q),
(1240,999,l),
(1350,955,o),
(1460,911,o),
(1574,865,q)
);
}
);
width = 1774;
},
{
layerId = "A66FA00C-2270-434E-9748-2FE2353A60C5";
shapes = (
{
closed = 1;
nodes = (
(479,0,l),
(346,133,l),
(260,57,l),
(260,113,o),
(260,170,o),
(260,228,q),
(231,228,o),
(201,228,o),
(171,228,q),
(171,0,l),
(100,0,l),
(100,515,l),
(171,515,l),
(172,473,l),
(207,473,o),
(243,473,o),
(279,473,q),
(279,515,l),
(345,515,o),
(411,515,o),
(479,515,q)
);
},
{
closed = 1;
nodes = (
(787,0,l),
(716,0,l),
(716,344,l),
(686,315,o),
(657,285,o),
(626,255,q),
(599,255,o),
(573,255,o),
(545,255,q),
(545,0,l),
(498,0,l),
(345,0,l),
(345,443,l),
(461,443,ls),
(513,443,o),
(566,443,o),
(620,443,q),
(620,500,l),
(675,500,o),
(730,500,o),
(787,500,q)
);
}
);
width = 887;
}
);
note = m;
unicode = 77;
},
{
glyphname = N;
lastChange = "2025-10-03 16:28:46 +0000";
layers = (
{
layerId = m01;
shapes = (
{
closed = 1;
nodes = (
(479,0,l),
(408,0,l),
(408,308,ls),
(408,361,o),
(343,427,o),
(290,427,qs),
(232,427,o),
(171,374,o),
(171,308,qs),
(171,0,l),
(100,0,l),
(100,456,l),
(171,514,l),
(172,426,l),
(194,456,o),
(260,498,o),
(296,498,qs),
(297,498,ls),
(384,499,o),
(479,396,o),
(479,308,qs)
);
}
);
width = 579;
},
{
layerId = "8170BF18-F680-49C4-9C32-98C00A67E0AD";
shapes = (
{
closed = 1;
nodes = (
(887,125,l),
(816,0,l),
(698,365,l),
(659,469,o),
(620,574,o),
(580,681,q),
(502,657,o),
(422,633,o),
(342,609,q),
(342,173,l),
(200,173,l),
(200,971,l),
(342,1029,l),
(344,852,l),
(414,900,o),
(483,948,o),
(555,998,q),
(798,999,l),
(851,831,o),
(904,664,o),
(958,490,q)
);
}
);
width = 1200;
},
{
layerId = "A66FA00C-2270-434E-9748-2FE2353A60C5";
shapes = (
{
closed = 1;
nodes = (
(408,125,l),
(408,0,l),
(290,0,l),
(290,84,o),
(290,168,o),
(290,254,q),
(251,254,o),
(211,254,o),
(171,254,q),
(171,173,l),
(100,173,l),
(100,515,l),
(171,515,l),
(172,426,l),
(193,450,o),
(214,474,o),
(236,499,q),
(479,500,l),
(479,376,o),
(479,253,o),
(479,125,q)
);
}
);
width = 600;
}
);
note = n;
unicode = 78;
},
{
glyphname = O;
lastChange = "2025-10-03 16:28:46 +0000";
layers = (
{
layerId = m01;
shapes = (
{
closed = 1;
nodes = (
(377,56,o),
(445,114,o),
(482,206,o),
(481,258,qs),
(480,313,o),
(433,397,o),
(361,443,o),
(322,442,qs),
(283,441,o),
(210,394,o),
(163,309,o),
(161,256,qs),
(159,205,o),
(206,110,o),
(287,52,o),
(333,54,qs)
);
},
{
closed = 1;
nodes = (
(542,187,o),
(482,58,o),
(387,-15,o),
(336,-15,qs),
(261,-15,o),
(155,55,o),
(100,178,o),
(100,258,qs),
(100,335,o),
(153,451,o),
(254,516,o),
(323,516,qs),
(386,516,o),
(486,454,o),
(542,341,o),
(542,267,qs)
);
}
);
width = 642;
},
{
layerId = "8170BF18-F680-49C4-9C32-98C00A67E0AD";
shapes = (
{
closed = 1;
nodes = (
(684,249,o),
(735,331,o),
(776,433,o),
(804,512,q),
(776,588,o),
(731,680,o),
(680,751,o),
(638,794,q),
(576,749,o),
(504,678,o),
(439,586,o),
(390,511,q),
(439,433,o),
(503,329,o),
(577,247,o),
(641,199,q)
);
},
{
closed = 1;
nodes = (
(1028,589,o),
(972,388,o),
(915,187,o),
(859,-15,q),
(695,54,o),
(530,122,o),
(365,191,o),
(200,259,q),
(254,454,o),
(309,650,o),
(363,844,o),
(417,1039,q),
(584,977,o),
(751,915,o),
(918,852,o),
(1084,790,q)
);
}
);
width = 1200;
},
{
layerId = "A66FA00C-2270-434E-9748-2FE2353A60C5";
shapes = (
{
closed = 1;
nodes = (
(338,137,o),
(361,170,o),
(373,223,o),
(373,253,qs),
(373,285,o),
(357,333,o),
(334,360,o),
(321,359,qs),
(308,358,o),
(284,331,o),
(268,283,o),
(268,252,qs),
(268,223,o),
(283,168,o),
(309,135,o),
(324,136,qs)
);
},
{
closed = 1;
nodes = (
(542,392,o),
(542,262,o),
(542,131,o),
(542,0,q),
(432,0,o),
(321,0,o),
(211,0,o),
(100,0,q),
(100,131,o),
(100,262,o),
(100,392,o),
(100,523,q),
(211,523,o),
(321,523,o),
(432,523,o),
(542,523,q)
);
}
);
width = 600;
}
);
note = o;
unicode = 79;
},
{
glyphname = P;
lastChange = "2025-10-03 16:28:46 +0000";
layers = (
{
layerId = m01;
shapes = (
{
closed = 1;
nodes = (
(347,444,o),
(408,391,o),
(408,325,qs),
(408,197,ls),
(408,144,o),
(343,78,o),
(290,78,qs),
(232,78,o),
(171,131,o),
(171,197,qs),
(171,325,ls),
(171,378,o),
(236,444,o),
(289,444,qs)
);
},
{
closed = 1;
nodes = (
(100,499,l),
(100,-200,l),
(171,-200,l),
(171,-59,ls),
(171,-25,o),
(197,1,o),
(223,1,qs),
(290,1,ls),
(375,1,o),
(479,105,o),
(479,191,qs),
(479,325,ls),
(479,406,o),
(388,503,o),
(297,503,qs),
(261,503,o),
(213,487,o),
(192,476,qs),
(178,469,o),
(176,469,qs),
(171,469,o),
(171,494,qs),
(171,499,l)
);
}
);
width = 579;
},
{
layerId = "8170BF18-F680-49C4-9C32-98C00A67E0AD";
shapes = (
{
closed = 1;
nodes = (
(624,1099,o),
(683,1064,o),
(742,1028,q),
(742,720,l),
(685,679,o),
(628,639,o),
(569,597,q),
(512,632,o),
(453,667,o),
(394,704,q),
(394,1012,l),
(451,1052,o),
(508,1093,o),
(567,1135,q)
);
},
{
closed = 1;
nodes = (
(153,1071,l),
(158,-307,l),
(559,-307,l),
(559,-68,l),
(583,-44,o),
(607,-22,o),
(633,2,q),
(946,1,l),
(990,276,o),
(1033,551,o),
(1078,834,q),
(854,1077,l),
(802,1053,o),
(750,1028,o),
(697,1003,q),
(606,994,o),
(515,984,o),
(421,975,qs),
(388,972,o),
(354,968,q),
(350,1015,o),
(346,1061,qs),
(346,1065,l)
);
}
);
width = 1200;
},
{
layerId = "A66FA00C-2270-434E-9748-2FE2353A60C5";
shapes = (
{
closed = 1;
nodes = (
(296,679,o),
(315,668,o),
(334,656,q),
(334,558,l),
(316,545,o),
(298,532,o),
(279,519,q),
(261,530,o),
(242,541,o),
(223,553,q),
(223,651,l),
(241,664,o),
(259,677,o),
(278,691,q)
);
},
{
closed = 1;
nodes = (
(53,572,l),
(58,-107,l),
(388,-107,l),
(388,-34,l),
(400,-22,o),
(412,-11,o),
(425,1,q),
(599,0,l),
(599,231,o),
(599,462,o),
(599,700,q),
(375,700,l),
(375,634,o),
(375,568,o),
(375,500,q),
(322,500,o),
(269,499,o),
(214,499,qs),
(195,499,o),
(175,499,q),
(175,534,o),
(175,569,qs),
(175,572,l)
);
}
);
width = 600;
}
);
note = p;
unicode = 80;
},
{
glyphname = Q;
lastChange = "2025-10-03 16:28:46 +0000";
layers = (
{
layerId = m01;
shapes = (
{
closed = 1;
nodes = (
(343,444,o),
(408,378,o),
(408,325,qs),
(408,197,ls),
(408,131,o),
(347,78,o),
(289,78,qs),
(236,78,o),
(171,144,o),
(171,197,qs),
(171,325,ls),
(171,391,o),
(232,444,o),
(290,444,qs)
);
},
{
closed = 1;
nodes = (
(408,494,ls),
(408,469,o),
(403,469,qs),
(401,469,o),
(387,476,qs),
(366,487,o),
(318,503,o),
(282,503,qs),
(191,503,o),
(100,406,o),
(100,325,qs),
(100,191,ls),
(100,105,o),
(204,1,o),
(289,1,qs),
(356,1,ls),
(382,1,o),
(408,-25,o),
(408,-59,qs),
(408,-200,l),
(479,-200,l),
(479,499,l),
(408,499,l)
);
}
);
width = 579;
},
{
layerId = "8170BF18-F680-49C4-9C32-98C00A67E0AD";
shapes = (
{
closed = 1;
nodes = (
(477,367,o),
(525,334,o),
(575,301,q),
(575,53,l),
(526,25,o),
(477,-4,o),
(427,-33,q),
(379,0,o),
(331,32,o),
(281,66,q),
(281,314,l),
(330,342,o),
(379,371,o),
(429,399,q)
);
},
{
closed = 1;
nodes = (
(808,1183,ls),
(804,1061,o),
(800,938,q),
(756,942,o),
(712,945,qs),
(592,954,o),
(472,963,o),
(348,972,q),
(296,900,o),
(244,828,o),
(191,754,q),
(191,268,l),
(260,224,o),
(328,179,o),
(399,134,q),
(539,75,l),
(606,63,o),
(674,52,o),
(743,40,q),
(743,-348,l),
(1030,-348,l),
(1030,1199,l),
(808,1193,l)
);
}
);
width = 1200;
},
{
layerId = "A66FA00C-2270-434E-9748-2FE2353A60C5";
shapes = (
{
closed = 1;
nodes = (
(148,-50,o),
(157,-55,o),
(167,-60,q),
(167,-98,l),
(157,-102,o),
(148,-107,o),
(138,-111,q),
(129,-106,o),
(120,-101,o),
(110,-96,q),
(110,-58,l),
(120,-54,o),
(129,-49,o),
(139,-45,q)
);
},
{
closed = 1;
nodes = (
(400,691,ls),
(400,580,o),
(400,469,q),
(370,469,o),
(340,469,qs),
(258,469,o),
(176,469,o),
(91,469,q),
(91,439,o),
(91,408,o),
(91,377,qs),
(91,134,l),
(116,134,o),
(141,133,o),
(167,133,q),
(167,74,l),
(222,74,o),
(278,74,o),
(335,74,q),
(335,-148,l),
(551,-148,l),
(551,700,l),
(400,700,l)
);
}
);
width = 600;
}
);
note = q;
unicode = 81;
},
{
glyphname = R;
lastChange = "2025-10-03 16:28:46 +0000";
layers = (
{
layerId = m01;
shapes = (
{
closed = 1;
nodes = (
(375,445,l),
(283,445,ls),
(233,445,o),
(171,384,o),
(171,334,qs),
(171,1,l),
(100,1,l),
(100,500,l),
(375,500,l)
);
}
);
width = 475;
},
{
layerId = "8170BF18-F680-49C4-9C32-98C00A67E0AD";
shapes = (
{
closed = 1;
nodes = (
(888,777,l),
(763,529,l),
(660,504,o),
(558,478,o),
(452,452,q),
(452,2,l),
(200,2,l),
(200,1000,l),
(754,1000,l)
);
}
);
width = 1226;
},
{
layerId = "A66FA00C-2270-434E-9748-2FE2353A60C5";
shapes = (
{
closed = 1;
nodes = (
(513,332,l),
(513,84,l),
(436,84,o),
(360,84,o),
(281,84,q),
(281,1,l),
(100,1,l),
(100,500,l),
(379,500,l)
);
}
);
width = 613;
}
);
note = r;
unicode = 82;
},
{
glyphname = S;
lastChange = "2025-10-03 16:28:46 +0000";
layers = (
{
layerId = m01;
shapes = (
{
closed = 1;
nodes = (
(524,361,l),
(524,362,ls),
(524,410,o),
(443,515,o),
(303,515,qs),
(193,515,o),
(115,432,o),
(113,377,qs),
(110,315,o),
(202,250,o),
(290,235,qs),
(355,224,o),
(423,190,o),
(447,148,o),
(447,120,qs),
(447,91,o),
(403,57,o),
(346,43,o),
(324,44,qs),
(278,45,o),
(185,89,o),
(184,145,q),
(100,145,l),
(100,106,o),
(128,38,o),
(229,-14,o),
(330,-14,qs),
(412,-14,o),
(501,35,o),
(530,94,o),
(530,115,qs),
(530,118,ls),
(534,159,o),
(468,256,o),
(339,281,qs),
(249,296,o),
(191,348,o),
(192,384,qs),
(193,414,o),
(253,453,o),
(304,453,qs),
(362,453,o),
(441,408,o),
(441,361,q)
);
}
);
width = 631;
},
{
layerId = "8170BF18-F680-49C4-9C32-98C00A67E0AD";
shapes = (
{
closed = 1;
nodes = (
(1001,871,l),
(1001,871,l),
(780,919,o),
(560,966,o),
(332,1015,q),
(259,880,o),
(184,744,o),
(109,605,q),
(274,563,o),
(439,522,o),
(609,479,q),
(645,416,o),
(680,354,o),
(716,291,o),
(751,228,q),
(675,211,o),
(601,193,o),
(525,176,o),
(449,158,q),
(403,190,o),
(357,222,o),
(310,255,q),
(101,271,l),
(154,200,o),
(207,129,o),
(259,57,o),
(312,-14,q),
(504,17,o),
(696,47,o),
(887,78,o),
(1079,108,q),
(1078,113,ls),
(1029,279,o),
(980,446,o),
(929,617,q),
(835,642,o),
(742,667,o),
(646,693,q),
(677,744,o),
(708,796,o),
(740,848,q),
(799,829,o),
(858,810,o),
(918,790,q)
);
}
);
width = 1200;
},
{
layerId = "A66FA00C-2270-434E-9748-2FE2353A60C5";
shapes = (
{
closed = 1;
nodes = (
(477,500,l),
(477,500,l),
(320,500,o),
(163,500,o),
(1,500,q),
(1,416,o),
(0,332,o),
(0,246,q),
(100,246,o),
(201,246,o),
(304,246,q),
(304,213,o),
(304,180,o),
(304,147,o),
(304,114,q),
(259,114,o),
(215,114,o),
(170,114,o),
(125,114,q),
(125,127,o),
(125,140,o),
(125,153,q),
(1,153,l),
(1,115,o),
(1,77,o),
(1,38,o),
(1,0,q),
(138,0,o),
(275,0,o),
(412,0,o),
(549,0,q),
(549,3,ls),
(549,104,o),
(549,205,o),
(549,309,q),
(511,309,o),
(474,309,o),
(435,309,q),
(435,337,o),
(435,366,o),
(435,395,q),
(449,395,o),
(463,395,o),
(477,395,q)
);
}
);
width = 600;
}
);
note = s;
unicode = 83;
},
{
glyphname = T;
lastChange = "2025-10-03 16:28:46 +0000";
layers = (
{
layerId = m01;
shapes = (
{
closed = 1;
nodes = (
(191,46,o),
(170,99,o),
(170,127,qs),
(170,375,ls),
(170,407,o),
(133,444,o),
(101,444,qs),
(100,444,l),
(100,499,l),
(102,499,ls),
(133,499,o),
(170,536,o),
(170,567,qs),
(170,662,l),
(232,712,l),
(235,712,l),
(235,573,ls),
(235,539,o),
(276,499,o),
(310,499,qs),
(337,499,l),
(337,444,l),
(235,444,l),
(235,146,ls),
(235,90,o),
(298,50,o),
(350,70,q),
(350,10,l),
(310,-5,o),
(235,6,o),
(211,29,qs)
);
}
);
width = 450;
},
{
layerId = "8170BF18-F680-49C4-9C32-98C00A67E0AD";
shapes = (
{
closed = 1;
nodes = (
(677,53,o),
(523,81,o),
(363,109,q),
(363,550,l),
(317,566,o),
(271,581,o),
(224,597,q),
(223,597,l),
(222,1137,l),
(224,1137,l),
(276,1154,o),
(329,1171,o),
(382,1188,q),
(382,1462,l),
(579,1512,l),
(586,1512,l),
(586,1250,l),
(703,1233,o),
(820,1216,o),
(941,1199,q),
(993,899,l),
(851,844,l),
(749,726,l),
(934,390,l),
(961,306,o),
(987,223,o),
(1015,137,q),
(942,80,l),
(906,63,o),
(869,44,o),
(832,26,q)
);
}
);
width = 1249;
},
{
layerId = "A66FA00C-2270-434E-9748-2FE2353A60C5";
shapes = (
{
closed = 1;
nodes = (
(478,0,o),
(338,0,o),
(193,0,q),
(193,153,l),
(163,153,o),
(133,153,o),
(102,153,qs),
(101,153,l),
(100,638,l),
(102,638,ls),
(138,638,o),
(175,638,o),
(212,638,q),
(212,800,l),
(347,800,l),
(351,800,l),
(351,700,l),
(451,700,o),
(551,700,o),
(654,700,q),
(656,400,l),
(514,400,l),
(514,282,l),
(699,282,l),
(699,215,o),
(699,149,o),
(699,80,q),
(619,80,l),
(619,54,o),
(619,27,o),
(619,0,q)
);
}
);
width = 799;
}
);
note = t;
unicode = 84;
},
{
glyphname = U;
lastChange = "2025-10-03 16:28:46 +0000";
layers = (
{
layerId = m01;
shapes = (
{
closed = 1;
nodes = (
(100,500,l),
(171,500,l),
(171,182,ls),
(171,129,o),
(236,63,o),
(289,63,qs),
(347,63,o),
(408,116,o),
(408,182,qs),
(408,500,l),
(479,500,l),
(479,0,l),
(408,0,l),
(407,64,l),
(385,34,o),
(319,-8,o),
(283,-8,qs),
(282,-8,ls),
(195,-9,o),
(100,94,o),
(100,182,qs)
);
}
);
width = 579;
},
{
layerId = "8170BF18-F680-49C4-9C32-98C00A67E0AD";
shapes = (
{
closed = 1;
nodes = (
(106,1000,l),
(342,1000,l),
(342,294,l),
(420,266,o),
(498,239,o),
(578,210,q),
(617,264,o),
(657,319,o),
(697,375,q),
(816,739,l),
(887,866,l),
(1081,366,l),
(1010,0,l),
(814,64,l),
(765,63,o),
(717,62,o),
(667,60,q),
(266,60,l),
(213,122,o),
(160,185,o),
(106,250,q)
);
}
);
width = 1200;
},
{
layerId = "A66FA00C-2270-434E-9748-2FE2353A60C5";
shapes = (
{
closed = 1;
nodes = (
(6,500,l),
(171,500,l),
(171,147,l),
(210,147,o),
(249,147,o),
(289,147,q),
(289,177,o),
(289,208,o),
(289,239,q),
(408,239,l),
(408,366,l),
(602,366,l),
(602,0,l),
(407,0,l),
(407,23,o),
(407,46,o),
(407,69,q),
(6,69,l),
(6,87,o),
(6,106,o),
(6,125,qs)
);
}
);
width = 600;
}
);
note = u;
unicode = 85;
},
{
glyphname = V;
lastChange = "2025-10-03 16:28:46 +0000";
layers = (
{
layerId = m01;
shapes = (
{
closed = 1;
nodes = (
(302,135,o),
(283,147,o),
(279,154,qs),
(262,188,o),
(187,438,o),
(171,500,q),
(92,500,l),
(212,132,ls),
(235,62,o),
(258,-8,q),
(316,-8,l),
(374,-8,l),
(397,62,o),
(420,132,qs),
(540,500,l),
(461,500,l),
(445,438,o),
(370,188,o),
(353,154,qs),
(349,147,o),
(330,135,o),
(316,135,qs)
);
}
);
width = 600;
},
{
layerId = "8170BF18-F680-49C4-9C32-98C00A67E0AD";
shapes = (
{
closed = 1;
nodes = (
(591,313,o),
(549,323,o),
(507,334,q),
(475,544,o),
(423,827,o),
(410,979,q),
(126,979,l),
(246,264,ls),
(269,128,o),
(292,-8,q),
(579,-8,l),
(710,-8,l),
(762,62,o),
(813,132,qs),
(1084,500,l),
(1005,839,l),
(917,794,o),
(790,619,o),
(680,515,q),
(664,444,o),
(648,374,o),
(632,302,q)
);
}
);
width = 1200;
},
{
layerId = "A66FA00C-2270-434E-9748-2FE2353A60C5";
shapes = (
{
closed = 1;
nodes = (
(291,167,o),
(265,167,o),
(239,167,q),
(239,270,o),
(239,373,o),
(239,479,q),
(34,479,l),
(34,132,ls),
(34,66,o),
(34,0,q),
(263,0,l),
(336,0,ls),
(365,0,o),
(393,0,qs),
(544,0,l),
(544,339,l),
(469,339,o),
(394,339,o),
(316,339,q),
(316,282,o),
(316,225,o),
(316,167,q)
);
}
);
width = 600;
}
);
note = v;
unicode = 86;
},
{
glyphname = W;
lastChange = "2025-10-03 16:28:46 +0000";
layers = (
{
layerId = m01;
shapes = (
{
closed = 1;
nodes = (
(255,135,o),
(236,147,o),
(232,154,qs),
(210,197,o),
(97,468,o),
(89,500,q),
(10,500,l),
(24,456,o),
(139,174,qs),
(175,83,o),
(211,-8,q),
(269,-8,l),
(327,-8,l),
(353,93,o),
(379,194,qs),
(441,440,o),
(458,500,q),
(379,500,l),
(377,494,o),
(361,404,qs),
(342,297,o),
(318,177,o),
(306,154,qs),
(302,147,o),
(283,135,o),
(269,135,qs)
);
},
{
closed = 1;
nodes = (
(554,135,o),
(535,147,o),
(531,154,qs),
(519,177,o),
(495,297,o),
(476,404,qs),
(460,494,o),
(458,500,q),
(379,500,l),
(397,440,o),
(458,194,qs),
(510,-8,l),
(568,-8,l),
(626,-8,l),
(662,83,o),
(698,174,qs),
(813,456,o),
(827,500,q),
(748,500,l),
(740,468,o),
(627,197,o),
(605,154,qs),
(601,147,o),
(582,135,o),
(568,135,qs)
);
}
);
width = 837;
},
{
layerId = "8170BF18-F680-49C4-9C32-98C00A67E0AD";
shapes = (
{
closed = 1;
nodes = (
(614,324,o),
(557,337,o),
(497,352,q),
(453,550,o),
(409,750,o),
(363,954,q),
(207,958,l),
(276,623,o),
(327,326,qs),
(364,139,o),
(401,-49,q),
(731,-49,l),
(789,87,l),
(838,186,o),
(914,399,q),
(1002,614,o),
(1089,829,q),
(933,829,l),
(906,792,o),
(879,754,qs),
(826,679,o),
(774,605,o),
(720,528,q),
(704,455,o),
(688,384,o),
(672,309,q)
);
},
{
closed = 1;
nodes = (
(1257,395,o),
(1204,408,o),
(1151,422,q),
(1136,523,o),
(1121,623,o),
(1105,727,qs),
(1097,779,o),
(1089,829,q),
(933,829,l),
(970,603,o),
(1007,376,qs),
(1063,49,l),
(1371,49,l),
(1429,-6,l),
(1485,87,o),
(1540,180,qs),
(1633,331,o),
(1725,481,q),
(1646,893,l),
(1550,795,o),
(1455,695,o),
(1357,594,q),
(1341,523,o),
(1325,453,o),
(1309,381,q)
);
}
);
width = 2021;
},
{
layerId = "A66FA00C-2270-434E-9748-2FE2353A60C5";
shapes = (
{
closed = 1;
nodes = (
(268,175,o),
(224,175,o),
(178,176,q),
(178,275,o),
(178,375,o),
(178,477,q),
(100,479,l),
(100,314,o),
(100,148,qs),
(100,54,o),
(100,-41,q),
(372,-41,l),
(372,95,l),
(407,148,o),
(441,200,qs),
(491,276,o),
(541,352,q),
(463,352,ls),
(444,352,o),
(425,352,qs),
(388,352,o),
(351,352,o),
(313,352,q),
(313,293,o),
(313,235,o),
(313,174,q)
);
},
{
closed = 1;
nodes = (
(615,246,o),
(578,246,o),
(541,246,q),
(541,272,o),
(541,298,o),
(541,325,qs),
(541,339,o),
(541,352,q),
(463,352,l),
(463,265,o),
(463,177,qs),
(463,57,l),
(713,57,l),
(713,2,l),
(732,2,o),
(750,2,qs),
(782,2,o),
(814,2,q),
(814,416,l),
(760,417,o),
(706,417,o),
(651,418,q),
(651,361,o),
(651,304,o),
(651,246,q)
);
}
);
width = 1004;
}
);
note = w;
unicode = 87;
},
{
glyphname = X;
lastChange = "2025-10-03 16:28:46 +0000";
layers = (
{
layerId = m01;
shapes = (
{
closed = 1;
nodes = (
(275,224,o),
(250,207,o),
(244,190,qs),
(174,0,l),
(100,0,l),
(187,237,ls),
(192,249,o),
(192,271,o),
(187,283,qs),
(109,500,l),
(183,500,l),
(244,330,ls),
(250,314,o),
(271,305,o),
(288,305,qs),
(303,305,o),
(322,314,o),
(330,330,qs),
(337,345,o),
(367,447,o),
(381,500,q),
(455,500,l),
(386,283,ls),
(382,271,o),
(383,250,o),
(387,237,qs),
(466,0,l),
(392,0,l),
(375,60,o),
(339,174,o),
(332,190,qs),
(325,207,o),
(302,224,o),
(289,224,qs)
);
}
);
width = 566;
},
{
layerId = "8170BF18-F680-49C4-9C32-98C00A67E0AD";
shapes = (
{
closed = 1;
nodes = (
(562,275,o),
(534,267,o),
(504,260,q),
(429,0,l),
(226,0,l),
(318,520,l),
(294,530,o),
(269,540,o),
(244,550,q),
(163,1000,l),
(419,1000,l),
(485,730,l),
(528,726,o),
(571,721,o),
(615,717,q),
(630,701,o),
(644,685,o),
(659,668,q),
(738,723,o),
(817,777,o),
(899,833,q),
(973,912,l),
(985,687,l),
(985,563,o),
(986,439,o),
(986,311,q),
(932,66,l),
(858,0,l),
(785,61,o),
(712,123,o),
(636,186,q),
(621,218,o),
(606,249,o),
(591,282,q)
);
}
);
width = 1200;
},
{
layerId = "A66FA00C-2270-434E-9748-2FE2353A60C5";
shapes = (
{
closed = 1;
nodes = (
(286,58,o),
(271,58,o),
(255,58,q),
(255,0,l),
(126,0,l),
(128,275,l),
(104,275,o),
(79,275,o),
(54,275,q),
(54,500,l),
(236,500,l),
(236,412,l),
(266,412,o),
(296,412,o),
(327,412,q),
(327,386,o),
(327,361,o),
(327,334,q),
(390,334,o),
(453,333,o),
(518,333,q),
(518,412,l),
(601,412,l),
(601,298,o),
(601,184,o),
(601,66,q),
(466,66,l),
(466,0,l),
(412,0,o),
(358,0,o),
(302,0,q),
(302,19,o),
(302,38,o),
(302,58,q)
);
}
);
width = 600;
}
);
note = x;
unicode = 88;
},
{
glyphname = Y;
lastChange = "2025-10-03 16:28:46 +0000";
layers = (
{
layerId = m01;
shapes = (
{
closed = 1;
nodes = (
(293,-200,l),
(517,500,l),
(438,500,l),
(425,451,o),
(364,259,o),
(347,225,qs),
(341,213,o),
(310,202,o),
(280,211,o),
(273,225,qs),
(251,268,o),
(199,431,o),
(179,500,q),
(100,500,l),
(119,441,o),
(188,249,qs),
(233,121,l),
(319,121,l),
(313,98,o),
(249,-97,o),
(215,-200,q)
);
}
);
width = 617;
},
{
layerId = "8170BF18-F680-49C4-9C32-98C00A67E0AD";
shapes = (
{
closed = 1;
nodes = (
(808,-389,l),
(1022,909,l),
(780,907,l),
(752,814,o),
(725,723,o),
(696,628,q),
(634,630,o),
(573,632,o),
(511,633,o),
(449,635,q),
(423,742,o),
(397,848,o),
(370,958,q),
(164,958,l),
(207,735,o),
(249,512,qs),
(294,279,l),
(527,245,l),
(495,32,o),
(462,-181,o),
(429,-400,q)
);
}
);
width = 1200;
},
{
layerId = "A66FA00C-2270-434E-9748-2FE2353A60C5";
shapes = (
{
closed = 1;
nodes = (
(511,-200,l),
(511,430,l),
(348,430,l),
(348,416,o),
(348,403,o),
(348,389,q),
(307,389,o),
(267,389,o),
(226,389,o),
(185,389,q),
(185,419,o),
(185,448,o),
(185,479,q),
(64,479,l),
(64,370,o),
(64,261,qs),
(64,147,l),
(214,147,l),
(214,32,o),
(214,-82,o),
(214,-200,q)
);
}
);
width = 600;
}
);
note = y;
unicode = 89;
},
{
glyphname = Z;
lastChange = "2025-10-03 16:28:46 +0000";
layers = (
{
layerId = m01;
shapes = (
{
closed = 1;
nodes = (
(100,76,l),
(100,0,l),
(503,0,l),
(503,65,l),
(238,66,l),
(220,68,o),
(219,101,o),
(238,123,qs),
(507,424,l),
(507,499,l),
(116,499,l),
(116,434,l),
(378,434,l),
(395,432,o),
(397,400,o),
(378,379,qs)
);
}
);
width = 607;
},
{
layerId = "8170BF18-F680-49C4-9C32-98C00A67E0AD";
shapes = (
{
closed = 1;
nodes = (
(462,152,l),
(462,0,l),
(1006,0,l),
(1006,132,l),
(827,135,l),
(826,209,o),
(826,283,o),
(825,360,q),
(1014,676,l),
(1014,998,l),
(232,998,l),
(232,696,l),
(393,695,l),
(394,621,o),
(395,546,o),
(396,470,q)
);
}
);
width = 1200;
},
{
layerId = "A66FA00C-2270-434E-9748-2FE2353A60C5";
shapes = (
{
closed = 1;
nodes = (
(362,76,l),
(362,0,l),
(503,0,l),
(503,67,l),
(600,67,l),
(600,128,o),
(600,189,o),
(600,252,q),
(507,252,l),
(507,499,l),
(116,499,l),
(116,262,l),
(4,262,l),
(4,201,o),
(4,139,o),
(4,76,q)
);
}
);
width = 600;
}
);
note = z;
unicode = 90;
},
{
glyphname = a;
layers = (
{
layerId = m01;
shapes = (
{
closed = 1;
nodes = (
(297,-13,o),
(353,10,o),
(385,30,qs),
(394,36,o),
(410,44,o),
(413,41,qs),
(416,38,o),
(418,21,o),
(418,9,qs),
(418,0,l),
(489,0,l),
(489,372,ls),
(489,405,o),
(448,464,o),
(373,500,o),
(324,500,qs),
(232,502,o),
(118,419,o),
(118,337,q),
(189,337,l),
(195,387,o),
(254,430,o),
(305,431,qs),
(363,432,o),
(421,386,o),
(422,331,q),
(373,319,ls),
(272,294,o),
(156,250,o),
(89,165,o),
(104,95,qs),
(114,49,o),
(196,-12,o),
(257,-13,qs)
);
},
{
closed = 1;
nodes = (
(422,190,o),
(406,117,o),
(386,94,qs),
(360,66,o),
(268,48,o),
(235,64,qs),
(211,76,o),
(190,133,o),
(195,163,qs),
(199,192,o),
(296,248,o),
(422,267,q)
);
}
);
width = 589;
},
{
layerId = "8170BF18-F680-49C4-9C32-98C00A67E0AD";
shapes = (
{
closed = 1;
nodes = (
(387,0,o),
(540,30,o),
(674,57,qs),
(725,67,o),
(776,77,o),
(828,87,q),
(831,67,o),
(835,35,o),
(836,11,qs),
(836,0,l),
(978,0,l),
(978,777,l),
(935,833,o),
(892,889,o),
(849,945,o),
(806,1001,q),
(588,966,o),
(371,930,o),
(146,894,q),
(220,745,l),
(285,766,o),
(350,788,o),
(417,810,q),
(426,746,o),
(435,683,o),
(444,617,q),
(438,609,ls),
(381,539,o),
(325,470,o),
(268,400,o),
(211,330,q),
(249,215,o),
(329,58,o),
(302,-4,q)
);
},
{
closed = 1;
nodes = (
(1054,543,o),
(1038,469,o),
(1018,443,q),
(992,420,o),
(900,407,o),
(867,429,q),
(842,437,o),
(819,492,o),
(823,518,qs),
(828,547,o),
(926,603,o),
(1054,622,q)
);
}
);
width = 1200;
},
{
layerId = "A66FA00C-2270-434E-9748-2FE2353A60C5";
shapes = (
{
closed = 1;
nodes = (
(128,10,o),
(217,20,o),
(308,31,qs),
(344,35,o),
(381,40,o),
(418,44,q),
(418,30,o),
(418,16,o),
(418,2,qs),
(418,0,l),
(489,0,l),
(489,372,ls),
(489,404,o),
(489,436,o),
(489,468,o),
(489,500,q),
(337,500,o),
(185,500,o),
(28,500,q),
(27,372,l),
(53,372,o),
(80,372,o),
(107,372,q),
(107,344,o),
(107,317,o),
(107,288,qs),
(107,285,ls),
(107,259,o),
(107,234,o),
(107,208,o),
(107,182,q),
(85,122,o),
(63,62,o),
(40,0,q)
);
},
{
closed = 1;
nodes = (
(709,371,o),
(675,340,o),
(636,359,q),
(657,340,o),
(611,331,o),
(626,357,q),
(618,337,o),
(612,363,o),
(633,360,q),
(593,370,o),
(646,407,o),
(727,407,q)
);
}
);
width = 600;
}
);
note = a;
unicode = 97;
},
{
glyphname = b;
layers = (
{
layerId = m01;
shapes = (
{
closed = 1;
nodes = (
(236,61,o),
(171,127,o),
(171,180,qs),
(171,308,ls),
(171,374,o),
(232,427,o),
(290,427,qs),
(343,427,o),
(408,361,o),
(408,308,qs),
(408,180,ls),
(408,114,o),
(347,61,o),
(289,61,qs)
);
},
{
closed = 1;
nodes = (
(171,9,o),
(173,24,o),
(176,24,qs),
(180,24,o),
(190,19,qs),
(236,-4,o),
(285,-4,qs),
(314,-4,ls),
(394,-4,o),
(479,94,o),
(479,174,qs),
(479,308,ls),
(479,394,o),
(375,498,o),
(290,498,qs),
(223,498,ls),
(197,498,o),
(171,524,o),
(171,558,qs),
(171,699,l),
(100,642,l),
(100,0,l),
(171,0,l)
);
}
);
width = 579;
},
{
layerId = "8170BF18-F680-49C4-9C32-98C00A67E0AD";
shapes = (
{
closed = 1;
nodes = (
(500,347,o),
(422,374,o),
(342,403,q),
(342,741,l),
(420,765,o),
(500,789,o),
(580,813,q),
(636,786,o),
(691,758,o),
(748,730,q),
(748,392,l),
(692,368,o),
(635,344,o),
(578,319,q)
);
},
{
closed = 1;
nodes = (
(463,57,o),
(465,115,o),
(468,174,q),
(494,172,o),
(520,170,qs),
(630,161,o),
(740,152,q),
(856,-4,l),
(927,38,o),
(1000,80,o),
(1073,123,q),
(1073,730,l),
(985,842,o),
(899,955,o),
(809,1070,q),
(416,1070,l),
(392,1094,o),
(368,1118,o),
(342,1142,q),
(342,1398,l),
(108,1342,l),
(108,0,l),
(460,0,l)
);
}
);
width = 1200;
},
{
layerId = "A66FA00C-2270-434E-9748-2FE2353A60C5";
shapes = (
{
closed = 1;
nodes = (
(250,258,o),
(211,258,o),
(171,258,q),
(171,386,l),
(210,386,o),
(250,386,o),
(290,386,qs),
(307,386,o),
(323,386,o),
(340,386,q),
(340,258,l),
(323,258,o),
(306,258,o),
(289,258,qs)
);
},
{
closed = 1;
nodes = (
(289,51,o),
(289,103,o),
(289,156,q),
(308,156,o),
(327,156,qs),
(407,156,o),
(487,156,q),
(487,0,l),
(522,0,o),
(558,0,o),
(594,0,q),
(594,365,l),
(550,433,o),
(507,502,o),
(462,572,q),
(208,572,l),
(196,584,o),
(184,596,o),
(171,608,q),
(171,699,l),
(8,700,l),
(8,0,l),
(289,0,l)
);
}
);
width = 600;
}
);
note = b;
unicode = 98;
},
{
glyphname = c;
layers = (
{
layerId = m01;
shapes = (
{
closed = 1;
nodes = (
(467,308,l),
(460,383,o),
(378,459,o),
(323,459,qs),
(288,459,o),
(225,418,o),
(183,323,o),
(183,247,qs),
(184,163,o),
(261,45,o),
(334,45,qs),
(384,45,o),
(456,105,o),
(465,162,q),
(542,162,l),
(524,71,o),
(428,-15,o),
(336,-15,qs),
(261,-15,o),
(155,55,o),
(100,178,o),
(100,258,qs),
(100,334,o),
(156,451,o),
(259,516,o),
(328,516,qs),
(423,516,o),
(536,406,o),
(542,308,q)
);
}
);
width = 642;
},
{
layerId = "8170BF18-F680-49C4-9C32-98C00A67E0AD";
shapes = (
{
closed = 1;
nodes = (
(963,722,l),
(948,754,o),
(934,787,o),
(919,820,q),
(884,732,o),
(848,644,o),
(813,556,o),
(777,467,q),
(790,390,o),
(802,314,o),
(816,235,q),
(842,238,o),
(867,239,o),
(894,242,q),
(966,103,l),
(858,64,o),
(751,25,o),
(640,-15,q),
(530,122,o),
(421,259,o),
(310,395,o),
(200,532,q),
(310,657,o),
(419,782,o),
(529,906,o),
(638,1031,q),
(770,984,o),
(903,937,o),
(1039,889,q)
);
}
);
width = 1194;
},
{
layerId = "A66FA00C-2270-434E-9748-2FE2353A60C5";
shapes = (
{
closed = 1;
nodes = (
(501,361,l),
(531,361,o),
(562,361,o),
(593,361,q),
(593,318,o),
(593,276,o),
(593,233,o),
(593,190,q),
(563,190,o),
(532,190,o),
(501,190,q),
(479,167,o),
(457,143,o),
(435,119,q),
(435,0,l),
(396,0,o),
(357,0,o),
(317,0,q),
(263,69,o),
(209,138,o),
(154,207,o),
(100,276,q),
(154,336,o),
(208,396,o),
(262,455,o),
(316,515,q),
(377,515,o),
(438,515,o),
(501,515,q)
);
}
);
width = 594;
}
);
note = c;
unicode = 99;
},
{
glyphname = d;
layers = (
{
layerId = m01;
shapes = (
{
closed = 1;
nodes = (
(232,61,o),
(171,114,o),
(171,180,qs),
(171,308,ls),
(171,361,o),
(236,427,o),
(289,427,qs),
(347,427,o),
(408,374,o),
(408,308,qs),
(408,180,ls),
(408,127,o),
(343,61,o),
(290,61,qs)
);
},
{
closed = 1;
nodes = (
(479,0,l),
(479,642,l),
(408,699,l),
(408,558,ls),
(408,524,o),
(382,498,o),
(356,498,qs),
(289,498,ls),
(204,498,o),
(100,394,o),
(100,308,qs),
(100,174,ls),
(100,94,o),
(185,-4,o),
(265,-4,qs),
(294,-4,ls),
(343,-4,o),
(389,19,qs),
(399,24,o),
(403,24,qs),
(406,24,o),
(408,9,o),
(408,0,q)
);
}
);
width = 579;
},
{
layerId = "8170BF18-F680-49C4-9C32-98C00A67E0AD";
shapes = (
{
closed = 1;
nodes = (
(460,377,o),
(431,424,o),
(403,472,q),
(502,682,l),
(554,687,o),
(606,693,o),
(659,698,q),
(687,652,o),
(716,605,o),
(744,558,q),
(645,348,l),
(593,342,o),
(541,337,o),
(488,331,q)
);
},
{
closed = 1;
nodes = (
(1079,0,l),
(1079,1284,l),
(816,1341,l),
(816,1068,l),
(792,1044,o),
(768,1020,o),
(744,996,q),
(391,998,l),
(336,965,o),
(282,932,o),
(225,899,q),
(225,823,l),
(220,781,o),
(216,739,o),
(211,696,q),
(328,-8,l),
(514,30,o),
(699,67,qs),
(744,77,o),
(788,85,q),
(797,61,o),
(807,37,o),
(816,12,q)
);
}
);
width = 1200;
},
{
layerId = "A66FA00C-2270-434E-9748-2FE2353A60C5";
shapes = (
{
closed = 1;
nodes = (
(209,292,o),
(220,315,o),
(232,338,q),
(331,338,l),
(344,316,o),
(357,294,o),
(370,271,q),
(359,249,o),
(348,226,o),
(336,203,q),
(237,203,l),
(224,225,o),
(211,247,o),
(198,270,q)
);
},
{
closed = 1;
nodes = (
(600,0,l),
(600,642,l),
(408,642,l),
(408,534,l),
(396,522,o),
(384,510,o),
(372,498,q),
(159,500,l),
(148,511,o),
(137,522,o),
(125,534,q),
(125,700,l),
(84,700,o),
(43,700,o),
(1,700,q),
(1,-4,l),
(157,22,o),
(312,48,qs),
(350,55,o),
(387,61,q),
(394,43,o),
(401,25,o),
(408,6,q)
);
}
);
width = 600;
}
);
note = d;
unicode = 100;
},
{
glyphname = e;
layers = (
{
layerId = m01;
shapes = (
{
closed = 1;
nodes = (
(456,305,l),
(454,379,o),
(377,457,o),
(322,457,qs),
(287,457,o),
(228,431,o),
(209,406,qs),
(196,391,o),
(186,342,o),
(215,305,o),
(257,305,qs)
);
},
{
closed = 1;
nodes = (
(100,334,o),
(156,451,o),
(259,516,o),
(328,516,qs),
(391,516,o),
(487,454,o),
(541,341,o),
(542,267,qs),
(542,262,o),
(542,253,o),
(541,249,q),
(172,249,l),
(172,164,o),
(255,45,o),
(334,45,qs),
(384,45,o),
(456,105,o),
(465,162,q),
(536,162,l),
(524,76,o),
(414,-15,o),
(336,-15,qs),
(261,-15,o),
(155,55,o),
(100,178,o),
(100,258,qs)
);
}
);
width = 642;
},
{
layerId = "8170BF18-F680-49C4-9C32-98C00A67E0AD";
shapes = (
{
closed = 1;
nodes = (
(714,335,l),
(674,525,o),
(633,714,o),
(592,909,q),
(485,893,o),
(378,878,o),
(268,862,q),
(268,717,o),
(269,573,o),
(269,427,o),
(269,282,q)
);
},
{
closed = 1;
nodes = (
(419,649,o),
(474,777,o),
(530,904,o),
(585,1032,q),
(711,988,o),
(837,944,o),
(962,899,o),
(1088,855,q),
(1088,755,o),
(1089,657,o),
(1089,554,q),
(575,499,l),
(640,388,o),
(704,278,o),
(770,163,q),
(848,189,o),
(925,214,o),
(1006,241,q),
(1075,103,l),
(909,64,o),
(744,25,o),
(573,-15,q),
(521,119,o),
(468,254,o),
(416,387,o),
(363,521,q)
);
}
);
width = 1294;
},
{
layerId = "A66FA00C-2270-434E-9748-2FE2353A60C5";
shapes = (
{
closed = 1;
nodes = (
(234,16,l),
(234,173,o),
(234,330,o),
(234,491,q),
(167,491,o),
(101,491,o),
(32,491,q),
(32,372,o),
(32,254,o),
(32,135,o),
(32,16,q)
);
},
{
closed = 1;
nodes = (
(263,328,o),
(263,391,o),
(263,453,o),
(263,516,q),
(334,516,o),
(405,516,o),
(476,516,o),
(547,516,q),
(547,445,o),
(547,375,o),
(547,302,q),
(403,302,l),
(422,241,o),
(441,181,o),
(460,118,q),
(489,118,o),
(517,118,o),
(547,118,q),
(547,0,l),
(453,0,o),
(360,0,o),
(263,0,q),
(263,66,o),
(263,133,o),
(263,199,o),
(263,265,qs)
);
}
);
width = 647;
}
);
note = e;
unicode = 101;
},
{
glyphname = f;
layers = (
{
layerId = m01;
shapes = (
{
closed = 1;
nodes = (
(240,540,ls),
(240,514,o),
(310,500,o),
(360,500,qs),
(380,500,l),
(380,440,l),
(240,440,l),
(240,0,l),
(180,0,l),
(180,120,l),
(180,380,ls),
(180,408,o),
(133,440,o),
(100,440,q),
(100,500,l),
(133,500,o),
(180,532,o),
(180,560,qs),
(180,640,l),
(240,700,l),
(431,700,l),
(431,640,l),
(240,640,l)
);
}
);
width = 531;
},
{
layerId = "8170BF18-F680-49C4-9C32-98C00A67E0AD";
shapes = (
{
closed = 1;
nodes = (
(689,1099,l),
(755,1092,o),
(821,1086,o),
(889,1079,q),
(929,1000,l),
(980,940,l),
(840,440,l),
(540,0,l),
(420,0,l),
(420,230,l),
(420,800,l),
(354,813,o),
(288,826,o),
(220,840,q),
(220,1040,l),
(266,1053,o),
(313,1066,o),
(360,1080,q),
(360,1300,l),
(480,1420,l),
(1031,1420,l),
(1031,1280,l),
(689,1280,l)
);
}
);
width = 1240;
},
{
layerId = "A66FA00C-2270-434E-9748-2FE2353A60C5";
shapes = (
{
closed = 1;
nodes = (
(449,579,l),
(482,579,o),
(515,579,o),
(549,579,q),
(549,500,l),
(600,500,l),
(600,0,l),
(300,0,l),
(240,0,l),
(240,110,l),
(240,400,l),
(194,400,o),
(148,400,o),
(100,400,q),
(100,540,l),
(126,540,o),
(153,540,o),
(180,540,q),
(180,660,l),
(240,720,l),
(600,720,l),
(600,640,l),
(449,640,l)
);
}
);
width = 620;
}
);
note = f;
unicode = 102;
},
{
glyphname = g;
layers = (
{
layerId = m01;
shapes = (
{
closed = 1;
nodes = (
(180,-201,l),
(210,-201,ls),
(300,-202,o),
(406,-189,o),
(479,-129,o),
(479,-64,qs),
(479,500,l),
(408,557,l),
(408,500,ls),
(408,491,o),
(406,476,o),
(403,476,qs),
(399,476,o),
(389,481,qs),
(343,504,o),
(294,504,qs),
(265,504,ls),
(185,504,o),
(100,406,o),
(100,326,qs),
(100,192,ls),
(100,101,o),
(186,0,o),
(281,0,qs),
(348,0,ls),
(379,0,o),
(407,-29,o),
(403,-64,qs),
(399,-92,o),
(361,-117,o),
(298,-122,o),
(233,-121,qs),
(180,-121,l)
);
},
{
closed = 1;
nodes = (
(236,73,o),
(171,139,o),
(171,192,qs),
(171,320,ls),
(171,386,o),
(232,439,o),
(290,439,qs),
(343,439,o),
(408,373,o),
(408,320,qs),
(408,192,ls),
(408,126,o),
(347,73,o),
(289,73,qs)
);
}
);
width = 579;
},
{
layerId = "8170BF18-F680-49C4-9C32-98C00A67E0AD";
shapes = (
{
closed = 1;
nodes = (
(666,-401,l),
(672,-400,ls),
(774,-385,o),
(876,-370,o),
(977,-355,o),
(1079,-339,q),
(1079,937,l),
(816,1114,l),
(816,944,l),
(784,938,o),
(751,932,o),
(718,926,q),
(711,940,o),
(704,952,qs),
(674,1007,o),
(644,1061,q),
(407,1061,l),
(310,958,o),
(213,856,o),
(113,750,q),
(113,135,l),
(187,90,o),
(262,46,o),
(338,0,q),
(491,61,l),
(599,37,o),
(705,12,o),
(816,-13,q),
(780,-62,o),
(745,-112,o),
(709,-160,o),
(673,-209,qs),
(666,-218,l)
);
},
{
closed = 1;
nodes = (
(303,-62,o),
(244,-24,o),
(184,17,q),
(184,312,l),
(243,346,o),
(303,379,o),
(363,413,q),
(421,375,o),
(480,336,o),
(540,296,q),
(540,1,l),
(481,-33,o),
(421,-66,o),
(361,-101,q)
);
}
);
width = 1200;
},
{
layerId = "A66FA00C-2270-434E-9748-2FE2353A60C5";
shapes = (
{
closed = 1;
nodes = (
(414,-200,l),
(417,-200,ls),
(463,-200,o),
(509,-201,o),
(554,-201,o),
(600,-201,q),
(600,437,l),
(408,557,l),
(408,450,l),
(378,450,o),
(348,450,o),
(317,450,q),
(317,461,o),
(317,471,qs),
(317,514,o),
(317,557,q),
(197,557,l),
(136,496,o),
(76,435,o),
(13,372,q),
(13,0,l),
(49,0,o),
(86,0,o),
(123,0,q),
(124,61,l),
(220,61,o),
(315,61,o),
(414,61,q),
(414,23,o),
(414,-15,o),
(414,-52,o),
(414,-90,qs),
(414,-97,l)
);
},
{
closed = 1;
nodes = (
(53,-163,o),
(33,-152,o),
(13,-140,q),
(13,-55,l),
(33,-45,o),
(53,-36,o),
(73,-26,q),
(92,-37,o),
(112,-48,o),
(132,-60,q),
(132,-145,l),
(112,-155,o),
(92,-164,o),
(72,-174,q)
);
}
);
width = 600;
}
);
note = g;
unicode = 103;
},
{
glyphname = h;
layers = (
{
layerId = m01;
shapes = (
{
closed = 1;
nodes = (
(479,0,l),
(408,0,l),
(408,308,ls),
(408,361,o),
(343,427,o),
(290,427,qs),
(232,427,o),
(171,374,o),
(171,308,qs),
(171,0,l),
(100,0,l),
(100,642,l),
(171,699,l),
(171,577,ls),
(171,532,o),
(211,498,o),
(250,498,qs),
(290,498,ls),
(375,498,o),
(479,394,o),
(479,308,qs)
);
}
);
width = 579;
},
{
layerId = "8170BF18-F680-49C4-9C32-98C00A67E0AD";
shapes = (
{
closed = 1;
nodes = (
(1006,34,l),
(935,180,l),
(784,524,l),
(745,519,o),
(706,515,o),
(666,510,q),
(577,486,o),
(487,462,o),
(395,438,q),
(395,0,l),
(200,0,l),
(200,1388,l),
(423,1445,l),
(423,1099,l),
(477,1083,o),
(531,1068,o),
(587,1052,q),
(1004,1052,l),
(1048,836,o),
(1091,621,o),
(1136,399,q)
);
}
);
width = 1514;
},
{
layerId = "A66FA00C-2270-434E-9748-2FE2353A60C5";
shapes = (
{
closed = 1;
nodes = (
(527,34,l),
(527,180,l),
(376,180,l),
(376,148,o),
(376,116,o),
(376,83,q),
(326,83,o),
(276,83,o),
(224,83,q),
(224,0,l),
(100,0,l),
(100,746,l),
(252,746,l),
(252,554,l),
(288,554,o),
(323,554,o),
(360,554,qs),
(657,554,l),
(657,382,o),
(657,211,o),
(657,34,q)
);
}
);
width = 757;
}
);
note = h;
unicode = 104;
},
{
glyphname = i;
layers = (
{
layerId = m01;
shapes = (
{
closed = 1;
nodes = (
(117,0,l),
(117,355,l),
(117,515,l),
(179,515,l),
(182,515,l),
(182,361,l),
(182,0,l)
);
},
{
closed = 1;
nodes = (
(100,572,l),
(198,572,l),
(198,670,l),
(100,670,l)
);
}
);
width = 298;
},
{
layerId = "8170BF18-F680-49C4-9C32-98C00A67E0AD";
shapes = (
{
closed = 1;
nodes = (
(234,0,l),
(234,405,l),
(234,750,l),
(450,750,l),
(456,750,l),
(456,417,l),
(456,0,l)
);
},
{
closed = 1;
nodes = (
(119,838,l),
(396,838,l),
(396,1340,l),
(119,1340,l)
);
}
);
width = 596;
},
{
layerId = "A66FA00C-2270-434E-9748-2FE2353A60C5";
shapes = (
{
closed = 1;
nodes = (
(117,0,l),
(117,50,l),
(117,235,l),
(271,235,l),
(274,235,l),
(274,56,l),
(274,0,l)
);
},
{
closed = 1;
nodes = (
(19,266,l),
(198,266,l),
(198,670,l),
(19,670,l)
);
}
);
width = 298;
}
);
note = i;
unicode = 105;
},
{
glyphname = j;
layers = (
{
layerId = m01;
shapes = (
{
closed = 1;
nodes = (
(203,549,l),
(301,549,l),
(301,647,l),
(203,647,l)
);
},
{
closed = 1;
nodes = (
(282,-111,o),
(261,-164,o),
(241,-181,qs),
(217,-204,o),
(142,-215,o),
(102,-200,q),
(100,-140,l),
(152,-160,o),
(214,-120,o),
(215,-64,qs),
(220,492,l),
(282,492,l),
(282,-83,ls)
);
}
);
width = 401;
},
{
layerId = "8170BF18-F680-49C4-9C32-98C00A67E0AD";
shapes = (
{
closed = 1;
nodes = (
(204,1097,l),
(602,1098,l),
(602,1294,l),
(204,1293,l)
);
},
{
closed = 1;
nodes = (
(764,-229,o),
(647,-257,o),
(527,-285,q),
(490,-229,o),
(454,-171,o),
(416,-113,q),
(295,-56,l),
(322,41,o),
(348,138,o),
(376,237,q),
(381,992,l),
(881,992,l),
(881,-202,l)
);
}
);
width = 1200;
},
{
layerId = "A66FA00C-2270-434E-9748-2FE2353A60C5";
shapes = (
{
closed = 1;
nodes = (
(1,548,l),
(301,549,l),
(301,647,l),
(1,646,l)
);
},
{
closed = 1;
nodes = (
(496,-101,o),
(393,-101,o),
(287,-101,q),
(287,-36,o),
(287,30,o),
(287,97,q),
(161,97,l),
(161,177,o),
(161,257,o),
(161,339,qs),
(161,500,l),
(599,500,l),
(599,-101,l)
);
}
);
width = 600;
}
);
note = j;
unicode = 106;
},
{
glyphname = k;
layers = (
{
layerId = m01;
shapes = (
{
closed = 1;
nodes = (
(171,390,ls),
(171,350,o),
(209,319,o),
(240,325,qs),
(268,330,o),
(319,435,o),
(346,515,q),
(420,515,l),
(340,324,ls),
(334,311,o),
(335,291,o),
(341,278,qs),
(470,0,l),
(396,0,l),
(364,68,o),
(310,184,o),
(295,213,qs),
(284,233,o),
(256,247,o),
(240,247,qs),
(198,247,o),
(171,194,o),
(171,131,qs),
(171,0,l),
(100,0,l),
(100,642,l),
(171,700,l)
);
}
);
width = 570;
},
{
layerId = "8170BF18-F680-49C4-9C32-98C00A67E0AD";
shapes = (
{
closed = 1;
nodes = (
(342,795,l),
(436,783,o),
(530,771,o),
(626,759,q),
(656,836,o),
(686,913,o),
(717,993,q),
(968,1030,l),
(884,616,l),
(847,606,o),
(808,597,o),
(770,587,q),
(902,0,l),
(688,0,l),
(652,108,o),
(616,218,o),
(579,329,q),
(517,340,o),
(454,351,o),
(390,363,q),
(374,299,o),
(358,235,o),
(342,169,qs),
(294,0,l),
(123,0,l),
(123,1342,l),
(342,1400,l)
);
}
);
width = 1200;
},
{
layerId = "A66FA00C-2270-434E-9748-2FE2353A60C5";
shapes = (
{
closed = 1;
nodes = (
(171,433,l),
(241,433,o),
(311,433,o),
(383,433,q),
(383,460,o),
(383,487,o),
(383,515,q),
(548,515,l),
(548,301,l),
(510,301,o),
(471,301,o),
(432,301,q),
(432,0,l),
(292,0,l),
(292,38,o),
(292,77,o),
(292,116,q),
(252,116,o),
(212,116,o),
(171,116,q),
(171,78,o),
(171,39,o),
(171,0,q),
(123,0,l),
(23,0,l),
(23,700,l),
(171,700,l)
);
}
);
width = 600;
}
);
note = k;
unicode = 107;
},
{
glyphname = l;
layers = (
{
layerId = m01;
shapes = (
{
closed = 1;
nodes = (
(100,0,l),
(100,567,l),
(100,712,l),
(162,712,l),
(165,712,l),
(165,573,l),
(165,0,l)
);
}
);
width = 265;
},
{
layerId = "8170BF18-F680-49C4-9C32-98C00A67E0AD";
shapes = (
{
closed = 1;
nodes = (
(100,0,l),
(100,1134,l),
(100,1424,l),
(419,1424,l),
(425,1424,l),
(425,1146,l),
(425,0,l)
);
}
);
width = 520;
},
{
layerId = "A66FA00C-2270-434E-9748-2FE2353A60C5";
shapes = (
{
closed = 1;
nodes = (
(0,0,l),
(0,567,l),
(0,712,l),
(257,712,l),
(260,712,l),
(260,573,l),
(260,0,l)
);
}
);
width = 260;
}
);
note = l;
unicode = 108;
},
{
glyphname = m;
layers = (
{
layerId = m01;
shapes = (
{
closed = 1;
nodes = (
(479,0,l),
(408,0,l),
(408,308,ls),
(408,361,o),
(343,427,o),
(290,427,qs),
(232,427,o),
(171,374,o),
(171,308,qs),
(171,0,l),
(100,0,l),
(100,459,l),
(171,515,l),
(172,426,l),
(194,456,o),
(260,498,o),
(296,498,qs),
(297,498,ls),
(384,499,o),
(479,396,o),
(479,308,qs)
);
},
{
closed = 1;
nodes = (
(787,0,l),
(716,0,l),
(716,308,ls),
(716,361,o),
(651,427,o),
(598,427,qs),
(540,427,o),
(479,374,o),
(479,308,qs),
(479,0,l),
(408,0,l),
(408,436,l),
(443,386,l),
(461,403,l),
(485,443,o),
(560,498,o),
(604,498,qs),
(605,498,ls),
(692,499,o),
(787,396,o),
(787,308,qs)
);
}
);
width = 887;
},
{
layerId = "8170BF18-F680-49C4-9C32-98C00A67E0AD";
shapes = (
{
closed = 1;
nodes = (
(958,0,l),
(754,133,l),
(668,401,l),
(629,484,o),
(590,569,o),
(550,655,q),
(482,631,o),
(412,607,o),
(342,583,q),
(342,0,l),
(200,0,l),
(200,974,l),
(342,1030,l),
(344,899,l),
(428,923,o),
(512,947,o),
(598,972,q),
(598,1014,l),
(721,970,o),
(845,926,o),
(972,880,q)
);
},
{
closed = 1;
nodes = (
(1574,0,l),
(1432,0,l),
(1432,688,l),
(1363,686,o),
(1295,684,o),
(1224,682,q),
(1162,662,o),
(1102,641,o),
(1038,620,q),
(1024,0,l),
(906,0,l),
(753,416,l),
(788,829,l),
(922,846,l),
(1026,878,o),
(1132,909,o),
(1240,942,q),
(1240,999,l),
(1350,955,o),
(1460,911,o),
(1574,865,q)
);
}
);
width = 1774;
},
{
layerId = "A66FA00C-2270-434E-9748-2FE2353A60C5";
shapes = (
{
closed = 1;
nodes = (
(479,0,l),
(346,133,l),
(260,57,l),
(260,113,o),
(260,170,o),
(260,228,q),
(231,228,o),
(201,228,o),
(171,228,q),
(171,0,l),
(100,0,l),
(100,515,l),
(171,515,l),
(172,473,l),
(207,473,o),
(243,473,o),
(279,473,q),
(279,515,l),
(345,515,o),
(411,515,o),
(479,515,q)
);
},
{
closed = 1;
nodes = (
(787,0,l),
(716,0,l),
(716,344,l),
(686,315,o),
(657,285,o),
(626,255,q),
(599,255,o),
(573,255,o),
(545,255,q),
(545,0,l),
(498,0,l),
(345,0,l),
(345,443,l),
(461,443,ls),
(513,443,o),
(566,443,o),
(620,443,q),
(620,500,l),
(675,500,o),
(730,500,o),
(787,500,q)
);
}
);
width = 887;
}
);
note = m;
unicode = 109;
},
{
glyphname = n;
layers = (
{
layerId = m01;
shapes = (
{
closed = 1;
nodes = (
(479,0,l),
(408,0,l),
(408,308,ls),
(408,361,o),
(343,427,o),
(290,427,qs),
(232,427,o),
(171,374,o),
(171,308,qs),
(171,0,l),
(100,0,l),
(100,456,l),
(171,514,l),
(172,426,l),
(194,456,o),
(260,498,o),
(296,498,qs),
(297,498,ls),
(384,499,o),
(479,396,o),
(479,308,qs)
);
}
);
width = 579;
},
{
layerId = "8170BF18-F680-49C4-9C32-98C00A67E0AD";
shapes = (
{
closed = 1;
nodes = (
(887,125,l),
(816,0,l),
(698,365,l),
(659,469,o),
(620,574,o),
(580,681,q),
(502,657,o),
(422,633,o),
(342,609,q),
(342,173,l),
(200,173,l),
(200,971,l),
(342,1029,l),
(344,852,l),
(414,900,o),
(483,948,o),
(555,998,q),
(798,999,l),
(851,831,o),
(904,664,o),
(958,490,q)
);
}
);
width = 1200;
},
{
layerId = "A66FA00C-2270-434E-9748-2FE2353A60C5";
shapes = (
{
closed = 1;
nodes = (
(408,125,l),
(408,0,l),
(290,0,l),
(290,84,o),
(290,168,o),
(290,254,q),
(251,254,o),
(211,254,o),
(171,254,q),
(171,173,l),
(100,173,l),
(100,515,l),
(171,515,l),
(172,426,l),
(193,450,o),
(214,474,o),
(236,499,q),
(479,500,l),
(479,376,o),
(479,253,o),
(479,125,q)
);
}
);
width = 600;
}
);
note = n;
unicode = 110;
},
{
glyphname = o;
layers = (
{
layerId = m01;
shapes = (
{
closed = 1;
nodes = (
(377,56,o),
(445,114,o),
(482,206,o),
(481,258,qs),
(480,313,o),
(433,397,o),
(361,443,o),
(322,442,qs),
(283,441,o),
(210,394,o),
(163,309,o),
(161,256,qs),
(159,205,o),
(206,110,o),
(287,52,o),
(333,54,qs)
);
},
{
closed = 1;
nodes = (
(542,187,o),
(482,58,o),
(387,-15,o),
(336,-15,qs),
(261,-15,o),
(155,55,o),
(100,178,o),
(100,258,qs),
(100,335,o),
(153,451,o),
(254,516,o),
(323,516,qs),
(386,516,o),
(486,454,o),
(542,341,o),
(542,267,qs)
);
}
);
width = 642;
},
{
layerId = "8170BF18-F680-49C4-9C32-98C00A67E0AD";
shapes = (
{
closed = 1;
nodes = (
(684,249,o),
(735,331,o),
(776,433,o),
(804,512,q),
(776,588,o),
(731,680,o),
(680,751,o),
(638,794,q),
(576,749,o),
(504,678,o),
(439,586,o),
(390,511,q),
(439,433,o),
(503,329,o),
(577,247,o),
(641,199,q)
);
},
{
closed = 1;
nodes = (
(1028,589,o),
(972,388,o),
(915,187,o),
(859,-15,q),
(695,54,o),
(530,122,o),
(365,191,o),
(200,259,q),
(254,454,o),
(309,650,o),
(363,844,o),
(417,1039,q),
(584,977,o),
(751,915,o),
(918,852,o),
(1084,790,q)
);
}
);
width = 1200;
},
{
layerId = "A66FA00C-2270-434E-9748-2FE2353A60C5";
shapes = (
{
closed = 1;
nodes = (
(338,137,o),
(361,170,o),
(373,223,o),
(373,253,qs),
(373,285,o),
(357,333,o),
(334,360,o),
(321,359,qs),
(308,358,o),
(284,331,o),
(268,283,o),
(268,252,qs),
(268,223,o),
(283,168,o),
(309,135,o),
(324,136,qs)
);
},
{
closed = 1;
nodes = (
(542,392,o),
(542,262,o),
(542,131,o),
(542,0,q),
(432,0,o),
(321,0,o),
(211,0,o),
(100,0,q),
(100,131,o),
(100,262,o),
(100,392,o),
(100,523,q),
(211,523,o),
(321,523,o),
(432,523,o),
(542,523,q)
);
}
);
width = 600;
}
);
note = o;
unicode = 111;
},
{
glyphname = p;
layers = (
{
layerId = m01;
shapes = (
{
closed = 1;
nodes = (
(347,444,o),
(408,391,o),
(408,325,qs),
(408,197,ls),
(408,144,o),
(343,78,o),
(290,78,qs),
(232,78,o),
(171,131,o),
(171,197,qs),
(171,325,ls),
(171,378,o),
(236,444,o),
(289,444,qs)
);
},
{
closed = 1;
nodes = (
(100,499,l),
(100,-200,l),
(171,-200,l),
(171,-59,ls),
(171,-25,o),
(197,1,o),
(223,1,qs),
(290,1,ls),
(375,1,o),
(479,105,o),
(479,191,qs),
(479,325,ls),
(479,406,o),
(388,503,o),
(297,503,qs),
(261,503,o),
(213,487,o),
(192,476,qs),
(178,469,o),
(176,469,qs),
(171,469,o),
(171,494,qs),
(171,499,l)
);
}
);
width = 579;
},
{
layerId = "8170BF18-F680-49C4-9C32-98C00A67E0AD";
shapes = (
{
closed = 1;
nodes = (
(624,1099,o),
(683,1064,o),
(742,1028,q),
(742,720,l),
(685,679,o),
(628,639,o),
(569,597,q),
(512,632,o),
(453,667,o),
(394,704,q),
(394,1012,l),
(451,1052,o),
(508,1093,o),
(567,1135,q)
);
},
{
closed = 1;
nodes = (
(153,1071,l),
(158,-307,l),
(559,-307,l),
(559,-68,l),
(583,-44,o),
(607,-22,o),
(633,2,q),
(946,1,l),
(990,276,o),
(1033,551,o),
(1078,834,q),
(854,1077,l),
(802,1053,o),
(750,1028,o),
(697,1003,q),
(606,994,o),
(515,984,o),
(421,975,qs),
(388,972,o),
(354,968,q),
(350,1015,o),
(346,1061,qs),
(346,1065,l)
);
}
);
width = 1200;
},
{
layerId = "A66FA00C-2270-434E-9748-2FE2353A60C5";
shapes = (
{
closed = 1;
nodes = (
(296,679,o),
(315,668,o),
(334,656,q),
(334,558,l),
(316,545,o),
(298,532,o),
(279,519,q),
(261,530,o),
(242,541,o),
(223,553,q),
(223,651,l),
(241,664,o),
(259,677,o),
(278,691,q)
);
},
{
closed = 1;
nodes = (
(53,572,l),
(58,-107,l),
(388,-107,l),
(388,-34,l),
(400,-22,o),
(412,-11,o),
(425,1,q),
(599,0,l),
(599,231,o),
(599,462,o),
(599,700,q),
(375,700,l),
(375,634,o),
(375,568,o),
(375,500,q),
(322,500,o),
(269,499,o),
(214,499,qs),
(195,499,o),
(175,499,q),
(175,534,o),
(175,569,qs),
(175,572,l)
);
}
);
width = 600;
}
);
note = p;
unicode = 112;
},
{
glyphname = q;
layers = (
{
layerId = m01;
shapes = (
{
closed = 1;
nodes = (
(343,444,o),
(408,378,o),
(408,325,qs),
(408,197,ls),
(408,131,o),
(347,78,o),
(289,78,qs),
(236,78,o),
(171,144,o),
(171,197,qs),
(171,325,ls),
(171,391,o),
(232,444,o),
(290,444,qs)
);
},
{
closed = 1;
nodes = (
(408,494,ls),
(408,469,o),
(403,469,qs),
(401,469,o),
(387,476,qs),
(366,487,o),
(318,503,o),
(282,503,qs),
(191,503,o),
(100,406,o),
(100,325,qs),
(100,191,ls),
(100,105,o),
(204,1,o),
(289,1,qs),
(356,1,ls),
(382,1,o),
(408,-25,o),
(408,-59,qs),
(408,-200,l),
(479,-200,l),
(479,499,l),
(408,499,l)
);
}
);
width = 579;
},
{
layerId = "8170BF18-F680-49C4-9C32-98C00A67E0AD";
shapes = (
{
closed = 1;
nodes = (
(477,367,o),
(525,334,o),
(575,301,q),
(575,53,l),
(526,25,o),
(477,-4,o),
(427,-33,q),
(379,0,o),
(331,32,o),
(281,66,q),
(281,314,l),
(330,342,o),
(379,371,o),
(429,399,q)
);
},
{
closed = 1;
nodes = (
(808,1183,ls),
(804,1061,o),
(800,938,q),
(756,942,o),
(712,945,qs),
(592,954,o),
(472,963,o),
(348,972,q),
(296,900,o),
(244,828,o),
(191,754,q),
(191,268,l),
(260,224,o),
(328,179,o),
(399,134,q),
(539,75,l),
(606,63,o),
(674,52,o),
(743,40,q),
(743,-348,l),
(1030,-348,l),
(1030,1199,l),
(808,1193,l)
);
}
);
width = 1200;
},
{
layerId = "A66FA00C-2270-434E-9748-2FE2353A60C5";
shapes = (
{
closed = 1;
nodes = (
(148,-50,o),
(157,-55,o),
(167,-60,q),
(167,-98,l),
(157,-102,o),
(148,-107,o),
(138,-111,q),
(129,-106,o),
(120,-101,o),
(110,-96,q),
(110,-58,l),
(120,-54,o),
(129,-49,o),
(139,-45,q)
);
},
{
closed = 1;
nodes = (
(400,691,ls),
(400,580,o),
(400,469,q),
(370,469,o),
(340,469,qs),
(258,469,o),
(176,469,o),
(91,469,q),
(91,439,o),
(91,408,o),
(91,377,qs),
(91,134,l),
(116,134,o),
(141,133,o),
(167,133,q),
(167,74,l),
(222,74,o),
(278,74,o),
(335,74,q),
(335,-148,l),
(551,-148,l),
(551,700,l),
(400,700,l)
);
}
);
width = 600;
}
);
note = q;
unicode = 113;
},
{
glyphname = r;
layers = (
{
layerId = m01;
shapes = (
{
closed = 1;
nodes = (
(375,445,l),
(283,445,ls),
(233,445,o),
(171,384,o),
(171,334,qs),
(171,1,l),
(100,1,l),
(100,500,l),
(375,500,l)
);
}
);
width = 475;
},
{
layerId = "8170BF18-F680-49C4-9C32-98C00A67E0AD";
shapes = (
{
closed = 1;
nodes = (
(888,777,l),
(763,529,l),
(660,504,o),
(558,478,o),
(452,452,q),
(452,2,l),
(200,2,l),
(200,1000,l),
(754,1000,l)
);
}
);
width = 1226;
},
{
layerId = "A66FA00C-2270-434E-9748-2FE2353A60C5";
shapes = (
{
closed = 1;
nodes = (
(513,332,l),
(513,84,l),
(436,84,o),
(360,84,o),
(281,84,q),
(281,1,l),
(100,1,l),
(100,500,l),
(379,500,l)
);
}
);
width = 613;
}
);
note = r;
unicode = 114;
},
{
glyphname = s;
layers = (
{
layerId = m01;
shapes = (
{
closed = 1;
nodes = (
(524,361,l),
(524,362,ls),
(524,410,o),
(443,515,o),
(303,515,qs),
(193,515,o),
(115,432,o),
(113,377,qs),
(110,315,o),
(202,250,o),
(290,235,qs),
(355,224,o),
(423,190,o),
(447,148,o),
(447,120,qs),
(447,91,o),
(403,57,o),
(346,43,o),
(324,44,qs),
(278,45,o),
(185,89,o),
(184,145,q),
(100,145,l),
(100,106,o),
(128,38,o),
(229,-14,o),
(330,-14,qs),
(412,-14,o),
(501,35,o),
(530,94,o),
(530,115,qs),
(530,118,ls),
(534,159,o),
(468,256,o),
(339,281,qs),
(249,296,o),
(191,348,o),
(192,384,qs),
(193,414,o),
(253,453,o),
(304,453,qs),
(362,453,o),
(441,408,o),
(441,361,q)
);
}
);
width = 631;
},
{
layerId = "8170BF18-F680-49C4-9C32-98C00A67E0AD";
shapes = (
{
closed = 1;
nodes = (
(1001,871,l),
(1001,871,l),
(780,919,o),
(560,966,o),
(332,1015,q),
(259,880,o),
(184,744,o),
(109,605,q),
(274,563,o),
(439,522,o),
(609,479,q),
(645,416,o),
(680,354,o),
(716,291,o),
(751,228,q),
(675,211,o),
(601,193,o),
(525,176,o),
(449,158,q),
(403,190,o),
(357,222,o),
(310,255,q),
(101,271,l),
(154,200,o),
(207,129,o),
(259,57,o),
(312,-14,q),
(504,17,o),
(696,47,o),
(887,78,o),
(1079,108,q),
(1078,113,ls),
(1029,279,o),
(980,446,o),
(929,617,q),
(835,642,o),
(742,667,o),
(646,693,q),
(677,744,o),
(708,796,o),
(740,848,q),
(799,829,o),
(858,810,o),
(918,790,q)
);
}
);
width = 1200;
},
{
layerId = "A66FA00C-2270-434E-9748-2FE2353A60C5";
shapes = (
{
closed = 1;
nodes = (
(477,500,l),
(477,500,l),
(320,500,o),
(163,500,o),
(1,500,q),
(1,416,o),
(0,332,o),
(0,246,q),
(100,246,o),
(201,246,o),
(304,246,q),
(304,213,o),
(304,180,o),
(304,147,o),
(304,114,q),
(259,114,o),
(215,114,o),
(170,114,o),
(125,114,q),
(125,127,o),
(125,140,o),
(125,153,q),
(1,153,l),
(1,115,o),
(1,77,o),
(1,38,o),
(1,0,q),
(138,0,o),
(275,0,o),
(412,0,o),
(549,0,q),
(549,3,ls),
(549,104,o),
(549,205,o),
(549,309,q),
(511,309,o),
(474,309,o),
(435,309,q),
(435,337,o),
(435,366,o),
(435,395,q),
(449,395,o),
(463,395,o),
(477,395,q)
);
}
);
width = 600;
}
);
note = s;
unicode = 115;
},
{
glyphname = t;
layers = (
{
layerId = m01;
shapes = (
{
closed = 1;
nodes = (
(191,46,o),
(170,99,o),
(170,127,qs),
(170,375,ls),
(170,407,o),
(133,444,o),
(101,444,qs),
(100,444,l),
(100,499,l),
(102,499,ls),
(133,499,o),
(170,536,o),
(170,567,qs),
(170,662,l),
(232,712,l),
(235,712,l),
(235,573,ls),
(235,539,o),
(276,499,o),
(310,499,qs),
(337,499,l),
(337,444,l),
(235,444,l),
(235,146,ls),
(235,90,o),
(298,50,o),
(350,70,q),
(350,10,l),
(310,-5,o),
(235,6,o),
(211,29,qs)
);
}
);
width = 450;
},
{
layerId = "8170BF18-F680-49C4-9C32-98C00A67E0AD";
shapes = (
{
closed = 1;
nodes = (
(677,53,o),
(523,81,o),
(363,109,q),
(363,550,l),
(317,566,o),
(271,581,o),
(224,597,q),
(223,597,l),
(222,1137,l),
(224,1137,l),
(276,1154,o),
(329,1171,o),
(382,1188,q),
(382,1462,l),
(579,1512,l),
(586,1512,l),
(586,1250,l),
(703,1233,o),
(820,1216,o),
(941,1199,q),
(993,899,l),
(851,844,l),
(749,726,l),
(934,390,l),
(961,306,o),
(987,223,o),
(1015,137,q),
(942,80,l),
(906,63,o),
(869,44,o),
(832,26,q)
);
}
);
width = 1249;
},
{
layerId = "A66FA00C-2270-434E-9748-2FE2353A60C5";
shapes = (
{
closed = 1;
nodes = (
(478,0,o),
(338,0,o),
(193,0,q),
(193,153,l),
(163,153,o),
(133,153,o),
(102,153,qs),
(101,153,l),
(100,638,l),
(102,638,ls),
(138,638,o),
(175,638,o),
(212,638,q),
(212,800,l),
(347,800,l),
(351,800,l),
(351,700,l),
(451,700,o),
(551,700,o),
(654,700,q),
(656,400,l),
(514,400,l),
(514,282,l),
(699,282,l),
(699,215,o),
(699,149,o),
(699,80,q),
(619,80,l),
(619,54,o),
(619,27,o),
(619,0,q)
);
}
);
width = 799;
}
);
note = t;
unicode = 116;
},
{
glyphname = u;
layers = (
{
layerId = m01;
shapes = (
{
closed = 1;
nodes = (
(100,500,l),
(171,500,l),
(171,182,ls),
(171,129,o),
(236,63,o),
(289,63,qs),
(347,63,o),
(408,116,o),
(408,182,qs),
(408,500,l),
(479,500,l),
(479,0,l),
(408,0,l),
(407,64,l),
(385,34,o),
(319,-8,o),
(283,-8,qs),
(282,-8,ls),
(195,-9,o),
(100,94,o),
(100,182,qs)
);
}
);
width = 579;
},
{
layerId = "8170BF18-F680-49C4-9C32-98C00A67E0AD";
shapes = (
{
closed = 1;
nodes = (
(106,1000,l),
(342,1000,l),
(342,294,l),
(420,266,o),
(498,239,o),
(578,210,q),
(617,264,o),
(657,319,o),
(697,375,q),
(816,739,l),
(887,866,l),
(1081,366,l),
(1010,0,l),
(814,64,l),
(765,63,o),
(717,62,o),
(667,60,q),
(266,60,l),
(213,122,o),
(160,185,o),
(106,250,q)
);
}
);
width = 1200;
},
{
layerId = "A66FA00C-2270-434E-9748-2FE2353A60C5";
shapes = (
{
closed = 1;
nodes = (
(6,500,l),
(171,500,l),
(171,147,l),
(210,147,o),
(249,147,o),
(289,147,q),
(289,177,o),
(289,208,o),
(289,239,q),
(408,239,l),
(408,366,l),
(602,366,l),
(602,0,l),
(407,0,l),
(407,23,o),
(407,46,o),
(407,69,q),
(6,69,l),
(6,87,o),
(6,106,o),
(6,125,qs)
);
}
);
width = 600;
}
);
note = u;
unicode = 117;
},
{
glyphname = v;
layers = (
{
layerId = m01;
shapes = (
{
closed = 1;
nodes = (
(302,135,o),
(283,147,o),
(279,154,qs),
(262,188,o),
(187,438,o),
(171,500,q),
(92,500,l),
(212,132,ls),
(235,62,o),
(258,-8,q),
(316,-8,l),
(374,-8,l),
(397,62,o),
(420,132,qs),
(540,500,l),
(461,500,l),
(445,438,o),
(370,188,o),
(353,154,qs),
(349,147,o),
(330,135,o),
(316,135,qs)
);
}
);
width = 600;
},
{
layerId = "8170BF18-F680-49C4-9C32-98C00A67E0AD";
shapes = (
{
closed = 1;
nodes = (
(591,313,o),
(549,323,o),
(507,334,q),
(475,544,o),
(423,827,o),
(410,979,q),
(126,979,l),
(246,264,ls),
(269,128,o),
(292,-8,q),
(579,-8,l),
(710,-8,l),
(762,62,o),
(813,132,qs),
(1084,500,l),
(1005,839,l),
(917,794,o),
(790,619,o),
(680,515,q),
(664,444,o),
(648,374,o),
(632,302,q)
);
}
);
width = 1200;
},
{
layerId = "A66FA00C-2270-434E-9748-2FE2353A60C5";
shapes = (
{
closed = 1;
nodes = (
(291,167,o),
(265,167,o),
(239,167,q),
(239,270,o),
(239,373,o),
(239,479,q),
(34,479,l),
(34,132,ls),
(34,66,o),
(34,0,q),
(263,0,l),
(336,0,ls),
(365,0,o),
(393,0,qs),
(544,0,l),
(544,339,l),
(469,339,o),
(394,339,o),
(316,339,q),
(316,282,o),
(316,225,o),
(316,167,q)
);
}
);
width = 600;
}
);
note = v;
unicode = 118;
},
{
glyphname = w;
layers = (
{
layerId = m01;
shapes = (
{
closed = 1;
nodes = (
(255,135,o),
(236,147,o),
(232,154,qs),
(210,197,o),
(97,468,o),
(89,500,q),
(10,500,l),
(24,456,o),
(139,174,qs),
(175,83,o),
(211,-8,q),
(269,-8,l),
(327,-8,l),
(353,93,o),
(379,194,qs),
(441,440,o),
(458,500,q),
(379,500,l),
(377,494,o),
(361,404,qs),
(342,297,o),
(318,177,o),
(306,154,qs),
(302,147,o),
(283,135,o),
(269,135,qs)
);
},
{
closed = 1;
nodes = (
(554,135,o),
(535,147,o),
(531,154,qs),
(519,177,o),
(495,297,o),
(476,404,qs),
(460,494,o),
(458,500,q),
(379,500,l),
(397,440,o),
(458,194,qs),
(510,-8,l),
(568,-8,l),
(626,-8,l),
(662,83,o),
(698,174,qs),
(813,456,o),
(827,500,q),
(748,500,l),
(740,468,o),
(627,197,o),
(605,154,qs),
(601,147,o),
(582,135,o),
(568,135,qs)
);
}
);
width = 837;
},
{
layerId = "8170BF18-F680-49C4-9C32-98C00A67E0AD";
shapes = (
{
closed = 1;
nodes = (
(614,324,o),
(557,337,o),
(497,352,q),
(453,550,o),
(409,750,o),
(363,954,q),
(207,958,l),
(276,623,o),
(327,326,qs),
(364,139,o),
(401,-49,q),
(731,-49,l),
(789,87,l),
(838,186,o),
(914,399,q),
(1002,614,o),
(1089,829,q),
(933,829,l),
(906,792,o),
(879,754,qs),
(826,679,o),
(774,605,o),
(720,528,q),
(704,455,o),
(688,384,o),
(672,309,q)
);
},
{
closed = 1;
nodes = (
(1257,395,o),
(1204,408,o),
(1151,422,q),
(1136,523,o),
(1121,623,o),
(1105,727,qs),
(1097,779,o),
(1089,829,q),
(933,829,l),
(970,603,o),
(1007,376,qs),
(1063,49,l),
(1371,49,l),
(1429,-6,l),
(1485,87,o),
(1540,180,qs),
(1633,331,o),
(1725,481,q),
(1646,893,l),
(1550,795,o),
(1455,695,o),
(1357,594,q),
(1341,523,o),
(1325,453,o),
(1309,381,q)
);
}
);
width = 2021;
},
{
layerId = "A66FA00C-2270-434E-9748-2FE2353A60C5";
shapes = (
{
closed = 1;
nodes = (
(268,175,o),
(224,175,o),
(178,176,q),
(178,275,o),
(178,375,o),
(178,477,q),
(100,479,l),
(100,314,o),
(100,148,qs),
(100,54,o),
(100,-41,q),
(372,-41,l),
(372,95,l),
(407,148,o),
(441,200,qs),
(491,276,o),
(541,352,q),
(463,352,ls),
(444,352,o),
(425,352,qs),
(388,352,o),
(351,352,o),
(313,352,q),
(313,293,o),
(313,235,o),
(313,174,q)
);
},
{
closed = 1;
nodes = (
(615,246,o),
(578,246,o),
(541,246,q),
(541,272,o),
(541,298,o),
(541,325,qs),
(541,339,o),
(541,352,q),
(463,352,l),
(463,265,o),
(463,177,qs),
(463,57,l),
(713,57,l),
(713,2,l),
(732,2,o),
(750,2,qs),
(782,2,o),
(814,2,q),
(814,416,l),
(760,417,o),
(706,417,o),
(651,418,q),
(651,361,o),
(651,304,o),
(651,246,q)
);
}
);
width = 1004;
}
);
note = w;
unicode = 119;
},
{
glyphname = x;
layers = (
{
layerId = m01;
shapes = (
{
closed = 1;
nodes = (
(275,224,o),
(250,207,o),
(244,190,qs),
(174,0,l),
(100,0,l),
(187,237,ls),
(192,249,o),
(192,271,o),
(187,283,qs),
(109,500,l),
(183,500,l),
(244,330,ls),
(250,314,o),
(271,305,o),
(288,305,qs),
(303,305,o),
(322,314,o),
(330,330,qs),
(337,345,o),
(367,447,o),
(381,500,q),
(455,500,l),
(386,283,ls),
(382,271,o),
(383,250,o),
(387,237,qs),
(466,0,l),
(392,0,l),
(375,60,o),
(339,174,o),
(332,190,qs),
(325,207,o),
(302,224,o),
(289,224,qs)
);
}
);
width = 566;
},
{
layerId = "8170BF18-F680-49C4-9C32-98C00A67E0AD";
shapes = (
{
closed = 1;
nodes = (
(562,275,o),
(534,267,o),
(504,260,q),
(429,0,l),
(226,0,l),
(318,520,l),
(294,530,o),
(269,540,o),
(244,550,q),
(163,1000,l),
(419,1000,l),
(485,730,l),
(528,726,o),
(571,721,o),
(615,717,q),
(630,701,o),
(644,685,o),
(659,668,q),
(738,723,o),
(817,777,o),
(899,833,q),
(973,912,l),
(985,687,l),
(985,563,o),
(986,439,o),
(986,311,q),
(932,66,l),
(858,0,l),
(785,61,o),
(712,123,o),
(636,186,q),
(621,218,o),
(606,249,o),
(591,282,q)
);
}
);
width = 1200;
},
{
layerId = "A66FA00C-2270-434E-9748-2FE2353A60C5";
shapes = (
{
closed = 1;
nodes = (
(286,58,o),
(271,58,o),
(255,58,q),
(255,0,l),
(126,0,l),
(128,275,l),
(104,275,o),
(79,275,o),
(54,275,q),
(54,500,l),
(236,500,l),
(236,412,l),
(266,412,o),
(296,412,o),
(327,412,q),
(327,386,o),
(327,361,o),
(327,334,q),
(390,334,o),
(453,333,o),
(518,333,q),
(518,412,l),
(601,412,l),
(601,298,o),
(601,184,o),
(601,66,q),
(466,66,l),
(466,0,l),
(412,0,o),
(358,0,o),
(302,0,q),
(302,19,o),
(302,38,o),
(302,58,q)
);
}
);
width = 600;
}
);
note = x;
unicode = 120;
},
{
glyphname = y;
layers = (
{
layerId = m01;
shapes = (
{
closed = 1;
nodes = (
(293,-200,l),
(517,500,l),
(438,500,l),
(425,451,o),
(364,259,o),
(347,225,qs),
(341,213,o),
(310,202,o),
(280,211,o),
(273,225,qs),
(251,268,o),
(199,431,o),
(179,500,q),
(100,500,l),
(119,441,o),
(188,249,qs),
(233,121,l),
(319,121,l),
(313,98,o),
(249,-97,o),
(215,-200,q)
);
}
);
width = 617;
},
{
layerId = "8170BF18-F680-49C4-9C32-98C00A67E0AD";
shapes = (
{
closed = 1;
nodes = (
(808,-389,l),
(1022,909,l),
(780,907,l),
(752,814,o),
(725,723,o),
(696,628,q),
(634,630,o),
(573,632,o),
(511,633,o),
(449,635,q),
(423,742,o),
(397,848,o),
(370,958,q),
(164,958,l),
(207,735,o),
(249,512,qs),
(294,279,l),
(527,245,l),
(495,32,o),
(462,-181,o),
(429,-400,q)
);
}
);
width = 1200;
},
{
layerId = "A66FA00C-2270-434E-9748-2FE2353A60C5";
shapes = (
{
closed = 1;
nodes = (
(511,-200,l),
(511,430,l),
(348,430,l),
(348,416,o),
(348,403,o),
(348,389,q),
(307,389,o),
(267,389,o),
(226,389,o),
(185,389,q),
(185,419,o),
(185,448,o),
(185,479,q),
(64,479,l),
(64,370,o),
(64,261,qs),
(64,147,l),
(214,147,l),
(214,32,o),
(214,-82,o),
(214,-200,q)
);
}
);
width = 600;
}
);
note = y;
unicode = 121;
},
{
glyphname = z;
layers = (
{
layerId = m01;
shapes = (
{
closed = 1;
nodes = (
(100,76,l),
(100,0,l),
(503,0,l),
(503,65,l),
(238,66,l),
(220,68,o),
(219,101,o),
(238,123,qs),
(507,424,l),
(507,499,l),
(116,499,l),
(116,434,l),
(378,434,l),
(395,432,o),
(397,400,o),
(378,379,qs)
);
}
);
width = 607;
},
{
layerId = "8170BF18-F680-49C4-9C32-98C00A67E0AD";
shapes = (
{
closed = 1;
nodes = (
(462,152,l),
(462,0,l),
(1006,0,l),
(1006,132,l),
(827,135,l),
(826,209,o),
(826,283,o),
(825,360,q),
(1014,676,l),
(1014,998,l),
(232,998,l),
(232,696,l),
(393,695,l),
(394,621,o),
(395,546,o),
(396,470,q)
);
}
);
width = 1200;
},
{
layerId = "A66FA00C-2270-434E-9748-2FE2353A60C5";
shapes = (
{
closed = 1;
nodes = (
(362,76,l),
(362,0,l),
(503,0,l),
(503,67,l),
(600,67,l),
(600,128,o),
(600,189,o),
(600,252,q),
(507,252,l),
(507,499,l),
(116,499,l),
(116,262,l),
(4,262,l),
(4,201,o),
(4,139,o),
(4,76,q)
);
}
);
width = 600;
}
);
note = z;
unicode = 122;
},
{
glyphname = zero;
layers = (
{
layerId = m01;
shapes = (
{
closed = 1;
nodes = (
(410,0,o),
(520,98,o),
(570,253,o),
(570,344,qs),
(570,438,o),
(523,606,o),
(414,715,o),
(326,715,qs),
(199,715,o),
(82,505,o),
(82,344,qs),
(82,259,o),
(135,101,o),
(245,0,o),
(326,0,qs)
);
},
{
closed = 1;
nodes = (
(265,65,o),
(185,144,o),
(147,272,o),
(147,346,qs),
(147,484,o),
(230,650,o),
(326,650,qs),
(422,650,o),
(505,475,o),
(505,346,qs),
(505,223,o),
(419,65,o),
(326,65,qs)
);
}
);
width = 600;
},
{
layerId = "8170BF18-F680-49C4-9C32-98C00A67E0AD";
shapes = (
{
closed = 1;
nodes = (
(983,531,o),
(1044,706,o),
(1104,881,o),
(1164,1056,q),
(973,1146,o),
(782,1236,o),
(589,1325,o),
(398,1415,q),
(316,1183,o),
(235,951,o),
(151,712,q),
(344,623,o),
(538,534,o),
(730,445,o),
(923,356,q)
);
},
{
closed = 1;
nodes = (
(353,165,o),
(307,262,o),
(262,359,o),
(216,456,q),
(449,618,o),
(683,781,o),
(923,948,q),
(981,753,o),
(1039,559,o),
(1099,358,q),
(868,262,o),
(637,166,o),
(398,67,q)
);
}
);
width = 1200;
},
{
layerId = "A66FA00C-2270-434E-9748-2FE2353A60C5";
shapes = (
{
closed = 1;
nodes = (
(594,442,o),
(594,528,o),
(594,614,o),
(594,700,q),
(463,700,o),
(332,700,o),
(200,700,o),
(69,700,q),
(69,586,o),
(69,473,o),
(69,356,q),
(200,356,o),
(332,356,o),
(463,356,o),
(594,356,q)
);
},
{
closed = 1;
nodes = (
(69,27,o),
(69,51,o),
(69,76,o),
(69,100,q),
(242,165,o),
(416,231,o),
(594,298,q),
(594,200,o),
(594,103,o),
(594,2,q),
(421,2,o),
(248,2,o),
(69,2,q)
);
}
);
width = 600;
}
);
note = zero;
unicode = 48;
},
{
glyphname = one;
layers = (
{
layerId = m01;
shapes = (
{
closed = 1;
nodes = (
(424,716,l),
(359,716,l),
(164,586,l),
(220,548,l),
(235,559,ls),
(283,594,o),
(328,619,o),
(340,612,qs),
(354,604,o),
(360,556,o),
(359,501,qs),
(359,469,l),
(359,0,l),
(424,0,l),
(424,573,l)
);
}
);
width = 600;
},
{
layerId = "8170BF18-F680-49C4-9C32-98C00A67E0AD";
shapes = (
{
closed = 1;
nodes = (
(982,1432,l),
(718,1432,l),
(523,1235,l),
(370,1219,l),
(373,1216,ls),
(412,1167,o),
(452,1119,o),
(492,1069,q),
(451,1033,o),
(411,997,o),
(368,960,qs),
(361,954,l),
(361,0,l),
(982,0,l),
(982,1146,l)
);
}
);
width = 1200;
},
{
layerId = "A66FA00C-2270-434E-9748-2FE2353A60C5";
shapes = (
{
closed = 1;
nodes = (
(558,716,l),
(359,716,l),
(359,649,l),
(150,649,l),
(150,645,ls),
(150,585,o),
(150,526,o),
(150,464,q),
(104,464,o),
(58,464,o),
(10,464,qs),
(2,464,l),
(2,0,l),
(558,0,l),
(558,573,l)
);
}
);
width = 600;
}
);
note = one;
unicode = 49;
},
{
glyphname = two;
layers = (
{
layerId = m01;
shapes = (
{
closed = 1;
nodes = (
(125,515,l),
(125,636,o),
(336,744,o),
(545,650,o),
(545,516,qs),
(545,475,o),
(511,399,o),
(452,323,o),
(393,254,qs),
(349,204,o),
(293,136,qs),
(271,109,o),
(289,69,o),
(324,69,qs),
(558,69,l),
(558,4,l),
(100,4,l),
(100,61,l),
(136,95,ls),
(243,196,o),
(376,332,o),
(476,469,o),
(476,516,qs),
(476,605,o),
(338,675,o),
(200,604,o),
(200,515,q)
);
}
);
width = 658;
},
{
layerId = "8170BF18-F680-49C4-9C32-98C00A67E0AD";
shapes = (
{
closed = 1;
nodes = (
(250,1303,l),
(476,1327,o),
(702,1352,o),
(928,1376,o),
(1154,1400,q),
(1058,1210,o),
(960,1020,o),
(864,830,o),
(766,639,qs),
(734,577,o),
(702,515,q),
(767,467,o),
(831,419,o),
(897,370,q),
(1155,69,l),
(696,4,l),
(238,137,l),
(219,266,l),
(224,281,ls),
(298,494,o),
(372,706,o),
(445,919,o),
(519,1131,q),
(471,1109,o),
(422,1087,o),
(374,1065,o),
(325,1043,q)
);
}
);
width = 1200;
},
{
layerId = "A66FA00C-2270-434E-9748-2FE2353A60C5";
shapes = (
{
closed = 1;
nodes = (
(125,700,l),
(238,700,o),
(351,700,o),
(464,700,o),
(577,700,q),
(529,614,o),
(480,529,o),
(432,443,o),
(383,357,qs),
(367,329,o),
(351,301,q),
(432,301,o),
(513,301,o),
(596,301,q),
(597,0,l),
(138,0,l),
(138,133,l),
(43,133,l),
(43,140,ls),
(43,237,o),
(43,334,o),
(43,431,o),
(43,528,q),
(64,528,o),
(84,528,o),
(105,528,o),
(125,528,q)
);
}
);
width = 600;
}
);
note = two;
unicode = 50;
},
{
glyphname = three;
layers = (
{
layerId = m01;
shapes = (
{
closed = 1;
nodes = (
(444,394,o),
(494,439,o),
(530,505,o),
(530,540,qs),
(530,655,o),
(319,739,o),
(110,636,o),
(110,515,q),
(185,515,l),
(185,603,o),
(319,675,o),
(455,616,o),
(455,540,qs),
(455,489,o),
(384,424,o),
(310,420,qs),
(283,418,o),
(258,398,o),
(259,376,qs),
(259,354,o),
(286,338,o),
(315,338,qs),
(381,337,o),
(459,321,o),
(506,264,o),
(506,207,qs),
(506,162,o),
(461,95,o),
(388,59,o),
(347,59,qs),
(312,59,o),
(233,91,o),
(177,157,o),
(174,205,q),
(100,207,l),
(100,181,o),
(134,85,o),
(244,-1,o),
(347,0,qs),
(484,2,o),
(581,132,o),
(581,211,qs),
(581,254,o),
(549,335,o),
(479,388,o),
(426,388,q)
);
}
);
width = 681;
},
{
layerId = "8170BF18-F680-49C4-9C32-98C00A67E0AD";
shapes = (
{
closed = 1;
nodes = (
(1015,870,o),
(1028,1014,o),
(1048,1191,o),
(1060,1324,q),
(824,1329,o),
(587,1334,o),
(351,1339,o),
(114,1344,q),
(189,1177,l),
(277,1172,o),
(363,1167,o),
(451,1161,o),
(537,1156,q),
(501,1038,o),
(464,919,o),
(427,797,q),
(504,783,o),
(581,769,o),
(660,754,q),
(691,701,o),
(721,648,o),
(753,594,q),
(725,565,o),
(696,536,o),
(668,506,o),
(639,477,q),
(602,409,o),
(564,340,o),
(527,272,o),
(489,203,q),
(422,227,o),
(356,251,o),
(288,274,o),
(221,298,q),
(144,199,l),
(342,149,o),
(540,100,o),
(737,50,o),
(935,0,q),
(1016,201,o),
(1097,401,o),
(1180,608,q),
(1139,651,o),
(1097,695,o),
(1055,738,o),
(1013,781,q)
);
}
);
width = 1200;
},
{
layerId = "A66FA00C-2270-434E-9748-2FE2353A60C5";
shapes = (
{
closed = 1;
nodes = (
(530,470,o),
(530,547,o),
(530,623,o),
(530,700,q),
(399,700,o),
(267,700,o),
(136,700,o),
(4,700,q),
(4,568,l),
(24,568,o),
(43,568,o),
(63,568,o),
(82,568,q),
(82,505,o),
(82,442,o),
(82,377,q),
(187,377,o),
(293,377,o),
(401,377,q),
(401,337,o),
(401,297,o),
(401,256,q),
(334,256,o),
(267,256,o),
(200,256,o),
(133,256,q),
(133,228,o),
(133,200,o),
(133,172,o),
(133,144,q),
(111,144,o),
(89,144,o),
(66,144,o),
(44,144,q),
(44,0,l),
(183,0,o),
(322,0,o),
(460,0,o),
(599,0,q),
(599,130,o),
(599,259,o),
(599,393,q),
(582,393,o),
(565,393,o),
(547,393,o),
(530,393,q)
);
}
);
width = 600;
}
);
note = three;
unicode = 51;
},
{
glyphname = four;
layers = (
{
layerId = m01;
shapes = (
{
closed = 1;
nodes = (
(212,293,l),
(406,561,ls),
(419,579,o),
(443,570,o),
(443,549,qs),
(443,469,l),
(443,293,l)
);
},
{
closed = 1;
nodes = (
(572,293,l),
(572,228,l)
);
},
{
closed = 1;
nodes = (
(572,228,l),
(572,293,l),
(563,293,ls),
(537,293,o),
(508,322,o),
(508,348,qs),
(508,573,l),
(508,716,l),
(443,716,l),
(118,293,l),
(118,228,l),
(388,228,ls),
(414,228,o),
(443,199,o),
(443,173,qs),
(443,0,l),
(508,0,l),
(508,173,ls),
(508,199,o),
(537,228,o),
(563,228,qs)
);
}
);
width = 600;
},
{
layerId = "8170BF18-F680-49C4-9C32-98C00A67E0AD";
shapes = (
{
closed = 1;
nodes = (
(335,659,l),
(538,1219,l),
(623,1216,o),
(708,1212,o),
(797,1209,q),
(797,1011,l),
(797,659,l)
);
},
{
closed = 1;
nodes = (
(572,293,l),
(1170,554,l)
);
},
{
closed = 1;
nodes = (
(1170,554,l),
(1080,619,l),
(1054,1093,l),
(990,1106,o),
(927,1118,o),
(862,1131,q),
(862,1334,l),
(862,1432,l),
(488,1432,l),
(163,484,l),
(236,419,l),
(522,228,l),
(611,216,o),
(700,204,o),
(793,191,q),
(793,131,l),
(1016,131,l),
(1016,382,l),
(1059,394,o),
(1100,406,o),
(1144,419,q)
);
}
);
width = 1200;
},
{
layerId = "A66FA00C-2270-434E-9748-2FE2353A60C5";
shapes = (
{
closed = 1;
nodes = (
(123,366,l),
(123,646,l),
(199,646,o),
(275,646,o),
(354,646,q),
(354,542,l),
(354,366,l)
);
},
{
closed = 1;
nodes = (
(572,293,l),
(598,326,l)
);
},
{
closed = 1;
nodes = (
(598,326,l),
(508,326,l),
(508,800,l),
(457,800,o),
(406,800,o),
(354,800,q),
(354,761,l),
(354,716,l),
(45,716,l),
(45,191,l),
(118,191,l),
(116,0,l),
(193,0,o),
(270,0,o),
(350,0,q),
(350,131,l),
(508,131,l),
(508,191,l),
(538,191,o),
(567,191,o),
(598,191,q)
);
}
);
width = 600;
}
);
note = four;
unicode = 52;
},
{
glyphname = five;
layers = (
{
layerId = m01;
shapes = (
{
closed = 1;
nodes = (
(294,437,o),
(328,441,o),
(346,441,qs),
(442,444,o),
(575,342,o),
(575,231,qs),
(575,146,o),
(483,2,o),
(347,0,qs),
(244,-1,o),
(134,85,o),
(100,181,o),
(100,207,q),
(174,205,l),
(177,157,o),
(233,93,o),
(312,62,o),
(347,62,qs),
(394,62,o),
(469,104,o),
(512,181,o),
(512,231,qs),
(512,297,o),
(417,371,o),
(279,368,o),
(219,327,qs),
(194,310,o),
(163,339,o),
(163,365,q),
(246,698,l),
(575,701,l),
(575,635,l),
(299,635,l),
(251,456,ls),
(247,439,o),
(262,427,o),
(279,432,qs)
);
}
);
width = 675;
},
{
layerId = "8170BF18-F680-49C4-9C32-98C00A67E0AD";
shapes = (
{
closed = 1;
nodes = (
(840,708,o),
(912,711,o),
(985,715,q),
(1045,570,o),
(1105,424,o),
(1167,275,q),
(893,175,o),
(620,74,o),
(338,-29,q),
(279,48,o),
(220,125,o),
(161,201,o),
(102,278,q),
(565,233,ls),
(611,228,o),
(658,224,o),
(704,219,o),
(750,214,q),
(719,261,o),
(688,308,o),
(657,354,o),
(625,401,q),
(562,537,o),
(500,673,o),
(437,809,o),
(374,945,q),
(305,945,o),
(236,946,o),
(165,946,q),
(248,1396,l),
(1150,1402,l),
(1150,1037,l),
(730,1037,l),
(679,717,l),
(709,713,o),
(739,708,o),
(769,704,q)
);
}
);
width = 1200;
},
{
layerId = "A66FA00C-2270-434E-9748-2FE2353A60C5";
shapes = (
{
closed = 1;
nodes = (
(524,272,o),
(558,272,o),
(592,272,q),
(592,182,o),
(592,92,o),
(592,0,q),
(397,0,o),
(203,0,o),
(2,0,q),
(2,20,o),
(2,40,o),
(2,59,o),
(2,79,q),
(388,79,l),
(388,97,o),
(388,116,o),
(388,134,o),
(388,152,q),
(319,152,o),
(251,152,o),
(182,152,o),
(113,152,q),
(113,263,o),
(113,374,o),
(113,485,o),
(113,596,q),
(76,596,o),
(40,596,o),
(2,596,q),
(2,698,l),
(575,701,l),
(575,402,l),
(431,402,l),
(431,272,l),
(451,272,o),
(471,272,o),
(491,272,qs)
);
}
);
width = 600;
}
);
note = five;
unicode = 53;
},
{
glyphname = six;
layers = (
{
layerId = m01;
shapes = (
{
closed = 1;
nodes = (
(172,131,o),
(272,62,o),
(340,62,qs),
(410,62,o),
(501,155,o),
(501,231,qs),
(501,275,o),
(455,343,o),
(382,380,o),
(343,380,qs),
(303,380,o),
(222,351,o),
(168,287,o),
(169,238,qs)
);
},
{
closed = 1;
nodes = (
(237,431,o),
(302,445,o),
(339,445,qs),
(434,445,o),
(566,341,o),
(566,231,qs),
(566,147,o),
(473,-1,o),
(340,-3,qs),
(239,-4,o),
(127,86,o),
(108,183,qs),
(96,243,o),
(103,422,o),
(121,515,qs),
(146,646,o),
(354,736,o),
(548,631,o),
(550,513,q),
(485,513,l),
(473,603,o),
(321,676,o),
(180,572,o),
(173,433,qs),
(172,413,o),
(189,403,o),
(206,413,qs)
);
}
);
width = 666;
},
{
layerId = "8170BF18-F680-49C4-9C32-98C00A67E0AD";
shapes = (
{
closed = 1;
nodes = (
(706,204,o),
(784,142,o),
(864,78,q),
(926,147,o),
(987,216,o),
(1051,286,q),
(1001,336,o),
(953,386,o),
(903,435,o),
(853,485,q),
(797,431,o),
(741,376,o),
(684,322,o),
(628,267,q)
);
},
{
closed = 1;
nodes = (
(792,848,o),
(770,857,o),
(746,865,q),
(810,764,o),
(874,663,o),
(940,559,q),
(877,374,o),
(813,189,o),
(748,-2,q),
(540,51,o),
(330,105,o),
(115,160,q),
(123,534,o),
(131,908,o),
(139,1294,q),
(373,1305,o),
(606,1316,o),
(840,1326,o),
(1073,1337,q),
(998,1174,l),
(944,1166,o),
(888,1157,o),
(834,1149,o),
(778,1140,q),
(791,1042,o),
(803,942,o),
(816,840,q)
);
}
);
width = 1200;
},
{
layerId = "A66FA00C-2270-434E-9748-2FE2353A60C5";
shapes = (
{
closed = 1;
nodes = (
(475,43,o),
(492,30,o),
(509,16,q),
(523,31,o),
(536,46,o),
(550,61,q),
(539,72,o),
(529,83,o),
(518,94,o),
(507,105,q),
(495,93,o),
(483,81,o),
(470,69,o),
(458,57,q)
);
},
{
closed = 1;
nodes = (
(524,420,o),
(450,420,o),
(373,420,q),
(373,375,o),
(374,330,o),
(374,284,qs),
(374,190,o),
(374,97,o),
(374,0,q),
(252,0,o),
(129,0,o),
(3,0,q),
(3,231,o),
(3,462,o),
(3,700,q),
(134,700,o),
(264,700,o),
(395,700,o),
(525,700,q),
(525,570,l),
(544,570,o),
(562,570,o),
(581,570,o),
(599,570,q),
(599,521,o),
(599,471,o),
(599,420,q)
);
}
);
width = 600;
}
);
note = six;
unicode = 54;
},
{
glyphname = seven;
layers = (
{
layerId = m01;
shapes = (
{
closed = 1;
nodes = (
(359,574,ls),
(367,602,o),
(341,635,o),
(312,635,qs),
(100,635,l),
(100,700,l),
(441,700,l),
(441,635,l),
(252,0,l),
(185,0,l)
);
}
);
width = 541;
},
{
layerId = "8170BF18-F680-49C4-9C32-98C00A67E0AD";
shapes = (
{
closed = 1;
nodes = (
(370,593,l),
(359,772,o),
(348,951,o),
(337,1135,q),
(200,1135,l),
(200,1400,l),
(1043,1400,l),
(1043,1270,l),
(749,635,l),
(682,0,l)
);
}
);
width = 1200;
},
{
layerId = "A66FA00C-2270-434E-9748-2FE2353A60C5";
shapes = (
{
closed = 1;
nodes = (
(5,0,l),
(5,165,o),
(5,330,o),
(5,500,q),
(100,500,l),
(100,700,l),
(602,700,l),
(602,635,l),
(497,635,l),
(497,0,l)
);
}
);
width = 600;
}
);
note = seven;
unicode = 55;
},
{
glyphname = eight;
layers = (
{
layerId = m01;
shapes = (
{
closed = 1;
nodes = (
(380,714,o),
(464,674,o),
(518,595,o),
(518,540,qs),
(518,500,o),
(478,434,o),
(449,412,qs),
(434,402,o),
(430,391,o),
(445,385,qs),
(509,359,o),
(569,268,o),
(569,211,qs),
(569,132,o),
(472,2,o),
(335,0,qs),
(198,2,o),
(100,132,o),
(100,211,qs),
(100,268,o),
(159,359,o),
(222,385,qs),
(238,392,o),
(240,402,o),
(227,412,qs),
(196,436,o),
(151,501,o),
(151,540,qs),
(151,595,o),
(205,674,o),
(290,714,o),
(335,715,qs)
);
},
{
closed = 1;
nodes = (
(377,65,o),
(450,98,o),
(494,162,o),
(494,207,qs),
(494,288,o),
(400,356,o),
(327,354,qs),
(255,352,o),
(175,288,o),
(175,207,qs),
(175,162,o),
(220,98,o),
(293,65,o),
(335,65,qs)
);
},
{
closed = 1;
nodes = (
(387,429,o),
(444,495,o),
(444,540,qs),
(444,573,o),
(411,623,o),
(360,650,o),
(335,650,qs),
(310,650,o),
(259,623,o),
(225,573,o),
(225,540,qs),
(225,495,o),
(284,429,o),
(335,429,qs)
);
}
);
width = 669;
},
{
layerId = "8170BF18-F680-49C4-9C32-98C00A67E0AD";
shapes = (
{
closed = 1;
nodes = (
(899,1355,o),
(945,1282,o),
(990,1211,o),
(1036,1138,q),
(1044,1089,o),
(1052,1039,o),
(1061,988,q),
(1068,902,o),
(1076,815,o),
(1083,727,q),
(1068,677,o),
(1054,625,o),
(1039,573,q),
(954,378,o),
(805,122,o),
(805,0,q),
(651,1,o),
(347,140,o),
(103,218,q),
(132,407,o),
(162,597,o),
(192,791,q),
(251,807,o),
(310,822,o),
(370,838,q),
(348,984,o),
(325,1130,o),
(302,1280,q),
(440,1317,o),
(578,1353,o),
(715,1390,o),
(853,1426,q)
);
},
{
closed = 1;
nodes = (
(745,237,o),
(805,297,o),
(864,355,o),
(924,413,q),
(837,490,o),
(706,605,o),
(685,621,q),
(645,584,o),
(530,486,o),
(445,413,q),
(505,355,o),
(565,297,o),
(625,237,o),
(685,179,q)
);
},
{
closed = 1;
nodes = (
(534,623,o),
(589,699,o),
(645,777,q),
(604,810,o),
(563,844,o),
(520,876,o),
(479,909,q),
(438,876,o),
(395,844,o),
(354,810,o),
(311,777,q),
(366,702,o),
(422,626,o),
(479,548,q)
);
}
);
width = 1200;
},
{
layerId = "A66FA00C-2270-434E-9748-2FE2353A60C5";
shapes = (
{
closed = 1;
nodes = (
(518,676,o),
(518,640,o),
(518,605,o),
(518,569,q),
(546,569,o),
(574,569,o),
(603,569,q),
(603,499,o),
(603,428,o),
(603,356,q),
(559,356,o),
(515,355,o),
(470,355,q),
(470,238,o),
(470,121,o),
(470,0,q),
(316,0,o),
(162,0,o),
(3,0,q),
(3,138,o),
(3,277,o),
(3,419,q),
(52,419,o),
(101,419,o),
(151,419,q),
(151,515,o),
(151,612,o),
(151,711,q),
(243,711,o),
(335,711,o),
(426,711,o),
(518,711,q)
);
},
{
closed = 1;
nodes = (
(370,134,o),
(390,155,o),
(410,175,o),
(430,195,q),
(401,222,o),
(357,262,o),
(350,267,q),
(324,243,o),
(297,219,o),
(270,195,q),
(290,175,o),
(310,155,o),
(330,134,o),
(350,114,q)
);
},
{
closed = 1;
nodes = (
(163,148,o),
(182,178,o),
(201,208,q),
(187,221,o),
(173,234,o),
(158,246,o),
(144,259,q),
(130,246,o),
(115,234,o),
(101,221,o),
(86,208,q),
(105,179,o),
(124,149,o),
(144,119,q)
);
}
);
width = 600;
}
);
note = eight;
unicode = 56;
},
{
glyphname = nine;
layers = (
{
layerId = m01;
shapes = (
{
closed = 1;
nodes = (
(494,581,o),
(394,650,o),
(326,650,qs),
(256,650,o),
(165,557,o),
(165,481,qs),
(165,437,o),
(211,369,o),
(284,332,o),
(323,332,qs),
(363,332,o),
(444,361,o),
(498,425,o),
(497,474,qs)
);
},
{
closed = 1;
nodes = (
(427,284,o),
(361,267,o),
(327,267,qs),
(232,267,o),
(100,371,o),
(100,481,qs),
(100,565,o),
(193,713,o),
(326,715,qs),
(427,716,o),
(539,626,o),
(558,529,qs),
(570,471,o),
(560,297,o),
(543,198,qs),
(520,64,o),
(313,-29,o),
(119,77,o),
(116,199,q),
(181,199,l),
(193,109,o),
(347,40,o),
(491,145,o),
(497,281,qs),
(498,301,o),
(477,313,o),
(460,303,qs)
);
}
);
width = 600;
},
{
layerId = "8170BF18-F680-49C4-9C32-98C00A67E0AD";
shapes = (
{
closed = 1;
nodes = (
(1033,1192,o),
(971,1278,o),
(908,1366,q),
(824,1312,o),
(740,1258,o),
(653,1203,q),
(692,1136,o),
(731,1070,o),
(769,1002,o),
(808,935,q),
(879,978,o),
(952,1021,o),
(1023,1063,o),
(1094,1106,q)
);
},
{
closed = 1;
nodes = (
(400,481,o),
(349,517,o),
(296,554,q),
(232,751,o),
(168,948,o),
(102,1152,q),
(262,1244,o),
(421,1335,o),
(586,1430,q),
(672,1322,o),
(759,1214,o),
(848,1104,q),
(941,960,o),
(1034,817,o),
(1129,669,q),
(1027,520,o),
(925,371,o),
(822,221,o),
(720,72,q),
(276,117,l),
(356,162,o),
(436,207,o),
(516,251,o),
(596,296,q),
(548,345,o),
(500,394,o),
(451,445,q)
);
}
);
width = 1200;
},
{
layerId = "A66FA00C-2270-434E-9748-2FE2353A60C5";
shapes = (
{
closed = 1;
nodes = (
(597,640,o),
(597,678,o),
(597,716,q),
(561,716,o),
(525,716,o),
(488,716,q),
(488,688,o),
(488,660,o),
(488,631,o),
(488,603,q),
(515,603,o),
(543,603,o),
(570,603,o),
(597,603,q)
);
},
{
closed = 1;
nodes = (
(2,194,o),
(2,240,o),
(2,287,qs),
(2,428,o),
(2,569,o),
(2,715,q),
(98,715,o),
(194,715,o),
(293,715,q),
(293,661,o),
(294,607,o),
(294,552,q),
(395,552,o),
(496,552,o),
(600,552,q),
(600,414,o),
(600,276,o),
(600,138,o),
(600,0,q),
(105,0,l),
(105,37,o),
(105,74,o),
(105,111,o),
(105,148,q),
(71,148,o),
(37,148,o),
(2,148,q)
);
}
);
width = 600;
}
);
note = nine;
unicode = 57;
},
{
glyphname = .notdef;
layers = (
{
layerId = m01;
shapes = (
{
closed = 1;
nodes = (
(93,800,l),
(93,-200,l),
(410,-200,l),
(410,800,l)
);
},
{
closed = 1;
nodes = (
(333,5,l),
(167,5,l),
(167,118,l),
(333,118,l)
);
},
{
closed = 1;
nodes = (
(200,85,l),
(200,38,l),
(300,38,l),
(300,85,l)
);
},
{
closed = 1;
nodes = (
(333,178,l),
(167,178,l),
(167,291,l),
(200,291,l),
(200,211,l),
(300,211,l),
(300,258,l),
(267,258,l),
(267,235,l),
(233,235,l),
(233,291,l),
(333,291,l)
);
},
{
closed = 1;
nodes = (
(333,313,l),
(167,313,l),
(167,347,l),
(300,347,l),
(300,413,l),
(333,413,l)
);
},
{
closed = 1;
nodes = (
(333,440,l),
(267,440,l),
(267,370,l),
(167,370,l),
(167,403,l),
(233,403,l),
(233,440,l),
(167,440,l),
(167,473,l),
(333,473,l)
);
},
{
closed = 1;
nodes = (
(200,570,l),
(200,534,l),
(233,534,l),
(233,570,l)
);
},
{
closed = 1;
nodes = (
(267,534,l),
(333,534,l),
(333,500,l),
(167,500,l),
(167,604,l),
(267,604,l)
);
},
{
closed = 1;
nodes = (
(333,700,l),
(267,700,l),
(267,663,l),
(333,663,l),
(333,630,l),
(167,630,l),
(167,663,l),
(233,663,l),
(233,700,l),
(168,700,l),
(168,733,l),
(333,733,l)
);
},
{
closed = 1;
nodes = (
(333,-51,l),
(301,-51,l),
(231,-98,l),
(333,-98,l),
(333,-131,l),
(167,-131,l),
(167,-98,l),
(237,-51,l),
(167,-51,l),
(167,-18,l),
(333,-18,l)
);
}
);
width = 500;
},
{
layerId = "8170BF18-F680-49C4-9C32-98C00A67E0AD";
shapes = (
{
closed = 1;
nodes = (
(186,1600,l),
(186,-400,l),
(820,-400,l),
(820,1600,l)
);
},
{
closed = 1;
nodes = (
(666,10,l),
(334,10,l),
(334,236,l),
(666,236,l)
);
},
{
closed = 1;
nodes = (
(400,170,l),
(400,76,l),
(600,76,l),
(600,170,l)
);
},
{
closed = 1;
nodes = (
(666,356,l),
(334,356,l),
(334,492.512,l),
(383.376,492.512,l),
(383.376,412.512,l),
(533,412.512,l),
(533,493,l),
(500,493,l),
(500,470,l),
(466,470,l),
(466,582,l),
(666,582,l)
);
},
{
closed = 1;
nodes = (
(666,626,l),
(334,626,l),
(334,694,l),
(600,694,l),
(600,826,l),
(666,826,l)
);
},
{
closed = 1;
nodes = (
(666,880,l),
(534,880,l),
(534,740,l),
(334,740,l),
(334,806,l),
(400,806,l),
(400,880,l),
(334,880,l),
(334,946,l),
(666,946,l)
);
},
{
closed = 1;
nodes = (
(400,1140,l),
(400,1068,l),
(466,1068,l),
(466,1140,l)
);
},
{
closed = 1;
nodes = (
(534,1068,l),
(666,1068,l),
(666,1000,l),
(334,1000,l),
(334,1208,l),
(534,1208,l)
);
},
{
closed = 1;
nodes = (
(666,1400,l),
(600,1400,l),
(600,1326,l),
(666,1326,l),
(666,1260,l),
(334,1260,l),
(334,1326,l),
(401,1326,l),
(401,1400,l),
(336,1400,l),
(336,1466,l),
(666,1466,l)
);
},
{
closed = 1;
nodes = (
(666,-102,l),
(634,-102,l),
(564,-196,l),
(666,-196,l),
(666,-262,l),
(334,-262,l),
(334,-196,l),
(474,-102,l),
(334,-102,l),
(334,-36,l),
(666,-36,l)
);
}
);
width = 1000;
},
{
layerId = "A66FA00C-2270-434E-9748-2FE2353A60C5";
shapes = (
{
closed = 1;
nodes = (
(93,800,l),
(93,-200,l),
(410,-200,l),
(410,800,l)
);
},
{
closed = 1;
nodes = (
(333,5,l),
(167,5,l),
(167,118,l),
(333,118,l)
);
},
{
closed = 1;
nodes = (
(200,85,l),
(200,38,l),
(300,38,l),
(300,85,l)
);
},
{
closed = 1;
nodes = (
(333,178,l),
(167,178,l),
(167,291,l),
(200,291,l),
(200,211,l),
(300,211,l),
(300,258,l),
(267,258,l),
(267,235,l),
(233,235,l),
(233,291,l),
(333,291,l)
);
},
{
closed = 1;
nodes = (
(333,313,l),
(167,313,l),
(167,347,l),
(300,347,l),
(300,413,l),
(333,413,l)
);
},
{
closed = 1;
nodes = (
(333,440,l),
(267,440,l),
(267,370,l),
(167,370,l),
(167,403,l),
(233,403,l),
(233,440,l),
(167,440,l),
(167,473,l),
(333,473,l)
);
},
{
closed = 1;
nodes = (
(200,570,l),
(200,534,l),
(233,534,l),
(233,570,l)
);
},
{
closed = 1;
nodes = (
(267,534,l),
(333,534,l),
(333,500,l),
(167,500,l),
(167,604,l),
(267,604,l)
);
},
{
closed = 1;
nodes = (
(333,700,l),
(267,700,l),
(267,663,l),
(333,663,l),
(333,630,l),
(167,630,l),
(167,663,l),
(233,663,l),
(233,700,l),
(168,700,l),
(168,733,l),
(333,733,l)
);
},
{
closed = 1;
nodes = (
(333,-51,l),
(301,-51,l),
(231,-98,l),
(333,-98,l),
(333,-131,l),
(167,-131,l),
(167,-98,l),
(237,-51,l),
(167,-51,l),
(167,-18,l),
(333,-18,l)
);
}
);
width = 500;
}
);
note = .notdef;
},
